<?xml version="1.0" encoding="UTF-8" standalone="no"?>
<!DOCTYPE svg PUBLIC "-//W3C//DTD SVG 1.1//EN" "http://www.w3.org/Graphics/SVG/1.1/DTD/svg11.dtd">
<svg width="100%" height="100%" viewBox="0 0 426 426" version="1.1" xmlns="http://www.w3.org/2000/svg" xmlns:xlink="http://www.w3.org/1999/xlink" xml:space="preserve" xmlns:serif="http://www.serif.com/" style="fill-rule:evenodd;clip-rule:evenodd;stroke-linejoin:round;stroke-miterlimit:2;">
    <rect x="0" y="0" width="425.197" height="425.197" style="fill:white;"/>
    <g transform="matrix(1.7247,0,0,1.7247,212.598,212.598)">
        <g transform="matrix(1,0,0,1,-100,-100)">
            <g transform="matrix(0.195312,0,0,0.195312,0,0)">
                <path d="M512.001,15.045C784.496,15.528 1008.56,239.636 1009,512.131C1009,649.416 953.111,773.704 863.323,863.784C773.51,953.882 648.987,1008.95 512.001,1008.95C374.739,1008.95 250.471,953.882 160.684,863.777C70.895,773.698 15.008,649.41 15.008,512.131C15.443,239.637 239.508,15.531 512.001,15.045ZM489.215,932.144L489.215,771.519C445.011,773.274 401.391,782.259 360.091,798.114C354.252,799.902 348.539,802.077 342.989,804.626C346.52,811.688 349.775,818.725 353.56,825.513C379.074,871.116 408.896,906.401 442.548,926.736C457.976,929.519 473.564,931.326 489.219,932.145L489.215,932.144ZM809.336,215.041C805.999,211.489 802.463,208.13 798.745,204.98C780.301,218.795 760.802,231.144 740.429,241.914C767.571,312.71 784.368,397.93 787.101,489.362L931.945,489.362C926.338,385.952 882.644,288.192 809.336,215.041ZM762.664,174.627C736.164,154.799 707.388,138.209 676.95,125.211C689.363,141.582 700.599,158.813 710.573,176.774C714.379,183.837 718.435,191.976 722.516,200.114C736.087,191.976 749.633,183.558 762.653,174.621L762.664,174.627ZM581.43,97.27C566.258,94.865 550.509,93.214 534.783,92.136L534.783,253.306C578.938,251.149 622.496,242.18 663.911,226.717C669.897,224.54 675.304,222.36 680.988,219.93C678.033,212.593 673.951,205.557 670.446,199.043C645.457,152.888 614.836,118.154 581.433,97.269L581.43,97.27ZM489.213,92.136C473.489,93.214 457.74,94.865 442.542,97.27C408.889,118.157 379.068,152.889 353.554,199.045C349.773,205.555 346.517,212.592 342.737,219.932C348.421,222.362 354.13,224.541 360.089,226.719C401.502,242.186 445.058,251.157 489.213,253.314L489.213,92.131L489.213,92.136ZM347.071,125.211C316.625,138.204 287.842,154.794 261.339,174.627C274.359,183.568 287.93,191.982 301.752,200.121C305.202,192.129 309.097,184.337 313.419,176.781C323.46,157.774 335.128,140.97 347.071,125.218L347.071,125.211ZM224.983,204.974C221.727,207.979 217.922,211.511 214.667,215.036C141.356,288.187 97.66,385.949 92.052,489.36L236.927,489.36C239.63,397.93 256.456,312.712 283.297,241.913C262.995,231.021 243.506,218.678 224.983,204.978L224.983,204.974ZM92.052,535.19C97.768,638.574 141.448,736.297 214.667,809.509L224.983,819.802C243.372,805.766 262.876,793.253 283.301,782.389C256.46,711.293 239.634,626.647 236.93,535.191L92.052,535.191L92.052,535.19ZM261.339,849.679C287.849,869.492 316.631,886.071 347.071,899.062C334.404,882.866 323.146,865.615 313.419,847.499C309.343,840.186 305.282,832.323 301.752,824.711C287.817,832.256 274.324,840.591 261.339,849.673L261.339,849.679ZM534.781,932.144C550.428,931.326 566.008,929.519 581.428,926.735C614.83,906.4 645.452,871.114 670.441,825.512C673.946,818.725 678.028,811.688 680.983,804.625C675.445,802.068 669.74,799.892 663.906,798.113C622.607,782.261 578.989,773.277 534.786,771.519L534.786,932.144L534.781,932.144ZM676.95,899.062C707.382,886.066 736.157,869.488 762.664,849.679C749.801,840.555 736.397,832.219 722.526,824.716C718.451,832.328 714.389,840.191 710.584,847.504C699.991,866.211 688.899,883.867 676.961,899.067L676.95,899.062ZM798.74,819.802L809.331,809.509C882.549,736.297 926.229,638.574 931.945,535.19L787.101,535.19C784.372,626.646 767.571,711.292 740.429,782.388C760.924,793.13 780.438,805.649 798.745,819.802L798.74,819.802ZM698.915,261.697C692.706,264.458 686.364,266.907 679.91,269.034C633.462,286.742 584.453,296.814 534.786,298.86L534.786,489.36L740.982,489.36C738.529,404.967 723.606,326.807 698.917,261.697L698.915,261.697ZM489.215,298.86C439.623,296.868 390.688,286.793 344.342,269.034C337.701,266.952 331.181,264.502 324.811,261.697C300.399,326.807 285.202,404.967 282.747,489.36L489.215,489.36L489.215,298.86ZM489.215,725.415L489.215,535.19L282.747,535.19C285.201,619.334 300.399,697.167 324.811,762.578C331.322,760.15 337.831,757.42 344.342,755.241C389.361,737.887 438.206,727.845 489.215,725.415ZM534.786,725.415C584.358,727.57 633.268,737.639 679.661,755.241C686.17,757.42 692.404,760.15 698.915,762.578C723.604,697.167 738.524,619.334 740.979,535.19L534.786,535.19L534.786,725.415Z" style="fill:rgb(59,63,81);fill-rule:nonzero;"/>
            </g>
        </g>
    </g>
</svg>
