<?xml version="1.0" standalone="no"?><!DOCTYPE svg PUBLIC "-//W3C//DTD SVG 1.1//EN" "http://www.w3.org/Graphics/SVG/1.1/DTD/svg11.dtd"><svg t="1652686432408" class="icon" viewBox="0 0 1024 1024" version="1.1" xmlns="http://www.w3.org/2000/svg" p-id="1538" xmlns:xlink="http://www.w3.org/1999/xlink" width="16" height="16"><defs><style type="text/css">@font-face { font-family: feedback-iconfont; src: url("//at.alicdn.com/t/font_1031158_u69w8yhxdu.woff2?t=1630033759944") format("woff2"), url("//at.alicdn.com/t/font_1031158_u69w8yhxdu.woff?t=1630033759944") format("woff"), url("//at.alicdn.com/t/font_1031158_u69w8yhxdu.ttf?t=1630033759944") format("truetype"); }
</style></defs><path d="M0.002613 3.135755h1020.864245v1020.864245H0.002613z" fill="#0099E5" p-id="1539"></path><path d="M483.380132 446.680852c-55.8719 22.957535-82.647468 87.072914-59.689933 142.946516 22.957535 55.875303 87.074616 82.644065 142.948218 59.688231 55.875303-22.957535 82.649169-87.072914 59.691634-142.948217-22.957535-55.875303-87.086526-82.638961-142.949919-59.68653zM662.832753 270.910148l-94.751515 38.932359-57.062908-32.62512a11.756953 11.756953 0 0 0-10.322639-0.665263l-154.681351 63.553904a11.743342 11.743342 0 0 0-6.946981 8.049514l-15.534151 62.16723-102.263374 42.015369c-22.082995 9.073782-32.652343 34.387812-23.585367 56.455495l120.618514 293.568229c9.068677 22.069384 34.382708 32.640433 56.465702 23.566651l441.564621-181.426292c22.082995-9.073782 32.652343-34.387812 23.583666-56.457196l-120.618514-293.568229c-9.063573-22.055772-34.381006-32.640433-56.465703-23.566651z m-87.246461 400.18559c-67.889174 27.891713-145.796429-4.639828-173.691544-72.530704-27.895116-67.887472 4.636425-145.79813 72.525599-173.691544 67.889174-27.895116 145.799832 4.636425 173.694947 72.525599 27.893414 67.890875-4.639828 145.79813-72.529002 173.696649z m78.730752-288.537071c-8.803253 3.615561-18.88769-0.593803-22.506654-9.398757-3.617262-8.803253 0.595504-18.889391 9.397056-22.506653 8.803253-3.615561 18.892794 0.592101 22.508355 9.395354 3.620665 8.808357-0.595504 18.892794-9.398757 22.510056z m0 0" fill="#FCFCFC" p-id="1540"></path></svg>