<svg xmlns="http://www.w3.org/2000/svg" xmlns:xlink="http://www.w3.org/1999/xlink" width="30" height="30" viewBox="0 0 30 30" fill="none"><defs><rect id="path_0" x="0" y="0" width="30" height="30" /><rect id="path_1" x="0" y="0" width="23" height="7" /></defs><g opacity="1" transform="translate(0 0)  rotate(0 15 15)"><mask id="bg-mask" fill="white"><use xlink:href="#path_0"></use></mask><g mask="url(#bg-mask)" ><path id="矩形 1" fill-rule="evenodd" style="fill:#FD4C5D" transform="translate(0 0)  rotate(0 15 15)" opacity="1" d="M0,30L30,30L30,0L0,0L0,30Z " /><g opacity="1" transform="translate(3.5 11.5)  rotate(0 11.5 3.5)"><mask id="bg-mask" fill="white"><use xlink:href="#path_1"></use></mask><g mask="url(#bg-mask)" ><path id="分组 1" fill-rule="evenodd" style="fill:#FFFFFF" transform="translate(0 0)  rotate(0 11.5 3.5)" opacity="1" d="M4.69 5.65C4.83 5.64 4.92 5.69 4.98 5.82C5.2 6.21 5.43 6.59 5.66 7C6.24 6.64 6.81 6.3 7.38 5.95C7.34 5.88 7.31 5.83 7.28 5.79C6.51 4.58 5.73 3.38 4.96 2.18C4.5 1.46 4.05 0.73 3.6 0C3.58 0 3.57 0 3.55 0C2.37 2.01 1.19 4.02 0 6.05C0.56 6.37 1.09 6.66 1.63 6.97C1.8 6.61 1.97 6.26 2.13 5.91C2.18 5.79 2.25 5.74 2.39 5.73C3.16 5.71 3.92 5.68 4.69 5.65Z M4.29201 4.36237C4.03201 3.84237 3.79201 3.35237 3.53201 2.81237C3.26201 3.37237 3.02201 3.89237 2.76201 4.45237C3.29201 4.42237 3.77201 4.39237 4.29201 4.36237Z M21.8747 4.39636C20.9047 3.65636 19.9747 2.94636 19.0047 2.20636C18.9247 3.64636 18.8547 5.01636 18.7747 6.40636C19.1647 6.40636 19.5347 6.40636 19.9147 6.40636C19.9147 5.72636 19.9147 5.05636 19.9147 4.35636C20.8647 5.09636 21.7847 5.80636 22.7547 6.56636C22.8347 5.10636 22.9147 3.71636 23.0047 2.30636C22.6247 2.30636 22.2547 2.30636 21.8747 2.30636C21.8747 2.98636 21.8747 3.65636 21.8747 4.39636Z M17.0883 2.2661C17.0883 2.5761 17.0983 2.86611 17.0883 3.1461C17.0783 3.7661 17.0683 4.3761 17.0283 4.99611C16.9983 5.3161 16.7683 5.5061 16.4883 5.53611C16.1483 5.5661 15.8983 5.41611 15.7883 5.0861C15.7383 4.92611 15.6983 4.7561 15.6983 4.5861C15.6783 3.92611 15.6783 3.2661 15.6783 2.5961C15.6783 2.5161 15.6783 2.43611 15.6783 2.3461C15.2483 2.3461 14.8383 2.3461 14.4283 2.3461C14.4283 3.13611 14.3783 3.90611 14.4383 4.65611C14.5183 5.8861 15.1483 6.4661 16.2883 6.4861C17.2883 6.5161 18.0183 5.9861 18.2283 5.0561C18.4383 4.13611 18.3183 3.19611 18.3483 2.2661C17.9083 2.2661 17.4883 2.2661 17.0883 2.2661Z M11.1324 6.38503C11.6324 6.38503 12.1124 6.38503 12.6224 6.38503C12.6224 5.79503 12.6224 5.22503 12.6224 4.62503C13.0824 4.62503 13.5324 4.62503 13.9724 4.62503C13.9724 4.26503 13.9724 3.92503 13.9724 3.56503C13.7324 3.57503 13.5224 3.58503 13.3124 3.59503C13.0924 3.59503 12.8724 3.59503 12.6224 3.59503C12.6224 3.25503 12.6224 2.90503 12.6224 2.52503C13.1224 2.52503 13.5924 2.52503 14.0724 2.52503C14.0724 2.12503 14.0724 1.76503 14.0724 1.38503C13.0724 1.42503 12.1124 1.45503 11.1324 1.49503C11.1324 3.13503 11.1324 4.75503 11.1324 6.38503Z M9.25624 5.27564C8.70624 5.05564 8.55624 4.48564 8.95624 4.03565C9.15624 3.80564 9.44624 3.65564 9.72624 3.50564C9.92624 3.39564 10.1762 3.35564 10.4062 3.28565C10.3262 2.92564 10.2462 2.58564 10.1662 2.20564C9.88624 2.29564 9.63624 2.35564 9.39624 2.44564C8.67624 2.72564 8.02624 3.13564 7.62624 3.84564C7.21624 4.59564 7.30624 5.36564 7.91624 5.87564C8.69624 6.52565 9.61624 6.53564 10.5762 6.44564C10.5562 6.08564 10.5362 5.74564 10.5162 5.42564C10.3362 5.42564 10.1862 5.44564 10.0362 5.42564C9.77624 5.38564 9.49624 5.37564 9.25624 5.27564Z " /></g></g></g></g></svg>