<?xml version="1.0" encoding="UTF-8"?>
<!DOCTYPE svg PUBLIC "-//W3C//DTD SVG 1.1//EN" "http://www.w3.org/Graphics/SVG/1.1/DTD/svg11.dtd">
<svg xmlns="http://www.w3.org/2000/svg" version="1.1" width="300px" height="300px" style="shape-rendering:geometricPrecision; text-rendering:geometricPrecision; image-rendering:optimizeQuality; fill-rule:evenodd; clip-rule:evenodd" xmlns:xlink="http://www.w3.org/1999/xlink">
<g><path style="opacity:1" fill="#f52324" d="M -0.5,-0.5 C 99.5,-0.5 199.5,-0.5 299.5,-0.5C 299.5,99.5 299.5,199.5 299.5,299.5C 199.5,299.5 99.5,299.5 -0.5,299.5C -0.5,199.5 -0.5,99.5 -0.5,-0.5 Z"/></g>
<g><path style="opacity:1" fill="#fffcfb" d="M 142.5,115.5 C 141.711,115.783 141.044,116.283 140.5,117C 145.019,117.175 149.353,117.675 153.5,118.5C 153.634,120.292 153.301,121.958 152.5,123.5C 165.656,124.496 178.99,124.829 192.5,124.5C 192.5,127.5 192.5,130.5 192.5,133.5C 184.981,133.175 177.648,133.508 170.5,134.5C 169.532,136.607 169.198,138.941 169.5,141.5C 178.833,141.5 188.167,141.5 197.5,141.5C 197.5,144.833 197.5,148.167 197.5,151.5C 188.167,151.5 178.833,151.5 169.5,151.5C 169.198,154.059 169.532,156.393 170.5,158.5C 193.824,153.646 201.657,162.313 194,184.5C 184.967,196.536 173.301,205.203 159,210.5C 155.253,208.374 151.753,205.874 148.5,203C 162.863,199.245 174.363,191.412 183,179.5C 184.914,172.632 182.414,168.965 175.5,168.5C 170.534,169.377 165.867,171.044 161.5,173.5C 157.838,172.003 154.172,170.503 150.5,169C 140.114,167.929 137.281,172.095 142,181.5C 146.274,186.562 151.107,191.062 156.5,195C 152.661,197.116 148.661,198.95 144.5,200.5C 136.248,194.425 130.081,186.758 126,177.5C 124.424,161.676 131.591,155.009 147.5,157.5C 148.568,158.434 149.901,158.768 151.5,158.5C 151.802,155.941 151.468,153.607 150.5,151.5C 141.5,151.5 132.5,151.5 123.5,151.5C 123.5,148.167 123.5,144.833 123.5,141.5C 132.833,141.5 142.167,141.5 151.5,141.5C 151.802,138.941 151.468,136.607 150.5,134.5C 144.833,133.833 139.167,133.167 133.5,132.5C 134.229,128.314 135.562,124.314 137.5,120.5C 137.167,120.167 136.833,119.833 136.5,119.5C 131.686,121.771 126.686,123.438 121.5,124.5C 121.335,121.482 121.502,118.482 122,115.5C 132.433,109.285 138.933,100.285 141.5,88.5C 147.833,88.5 154.167,88.5 160.5,88.5C 159.909,91.9399 158.909,95.2732 157.5,98.5C 175.157,99.333 192.824,99.833 210.5,100C 216.127,100.957 219.96,104.124 222,109.5C 222.667,138.167 222.667,166.833 222,195.5C 219.362,205.414 212.862,209.748 202.5,208.5C 202.985,176.079 202.485,143.746 201,111.5C 183.24,110.342 165.407,110.175 147.5,111C 145.963,112.707 144.296,114.207 142.5,115.5 Z"/></g>
<g><path style="opacity:1" fill="#fffbfb" d="M 99.5,88.5 C 107.999,87.3157 114.832,89.9823 120,96.5C 122.126,105.085 118.959,110.585 110.5,113C 102.503,115.045 95.6694,113.212 90,107.5C 86.7696,97.9607 89.9363,91.6274 99.5,88.5 Z"/></g>
<g><path style="opacity:1" fill="#fa908f" d="M 142.5,115.5 C 146.353,116.166 150.353,116.833 154.5,117.5C 154.376,118.107 154.043,118.44 153.5,118.5C 149.353,117.675 145.019,117.175 140.5,117C 141.044,116.283 141.711,115.783 142.5,115.5 Z"/></g>
<g><path style="opacity:1" fill="#fffbfa" d="M 81.5,116.5 C 95.4825,121.559 106.983,129.892 116,141.5C 117.037,145.078 117.537,148.744 117.5,152.5C 115.741,170.148 112.408,187.481 107.5,204.5C 97.4707,204.564 87.4707,203.564 77.5,201.5C 79.9648,195.512 83.1314,189.845 87,184.5C 93.7562,173.662 98.2562,161.996 100.5,149.5C 100.485,147.366 99.9847,145.366 99,143.5C 92.4922,136.489 84.9922,130.822 76.5,126.5C 78.705,123.423 80.3716,120.09 81.5,116.5 Z"/></g>
<g><path style="opacity:1" fill="#fbbbbb" d="M 133.5,132.5 C 139.167,133.167 144.833,133.833 150.5,134.5C 144.463,134.829 138.463,134.496 132.5,133.5C 132.624,132.893 132.957,132.56 133.5,132.5 Z"/></g>
<g><path style="opacity:1" fill="#fba9a9" d="M 152.5,123.5 C 166.167,123.5 179.833,123.5 193.5,123.5C 193.5,127.167 193.5,130.833 193.5,134.5C 185.833,134.5 178.167,134.5 170.5,134.5C 177.648,133.508 184.981,133.175 192.5,133.5C 192.5,130.5 192.5,127.5 192.5,124.5C 178.99,124.829 165.656,124.496 152.5,123.5 Z"/></g>
<g><path style="opacity:1" fill="#f87170" d="M 150.5,134.5 C 151.468,136.607 151.802,138.941 151.5,141.5C 142.167,141.5 132.833,141.5 123.5,141.5C 132.318,140.507 141.318,140.173 150.5,140.5C 150.5,138.5 150.5,136.5 150.5,134.5 Z"/></g>
<g><path style="opacity:1" fill="#f86e6d" d="M 170.5,134.5 C 170.5,136.5 170.5,138.5 170.5,140.5C 179.682,140.173 188.682,140.507 197.5,141.5C 188.167,141.5 178.833,141.5 169.5,141.5C 169.198,138.941 169.532,136.607 170.5,134.5 Z"/></g>
<g><path style="opacity:1" fill="#f86868" d="M 197.5,151.5 C 188.682,152.493 179.682,152.827 170.5,152.5C 170.5,154.5 170.5,156.5 170.5,158.5C 169.532,156.393 169.198,154.059 169.5,151.5C 178.833,151.5 188.167,151.5 197.5,151.5 Z"/></g>
<g><path style="opacity:1" fill="#fbadac" d="M 150.5,151.5 C 151.468,153.607 151.802,155.941 151.5,158.5C 149.901,158.768 148.568,158.434 147.5,157.5C 148.5,157.5 149.5,157.5 150.5,157.5C 150.5,155.5 150.5,153.5 150.5,151.5 Z"/></g>
</svg>
