<svg xmlns="http://www.w3.org/2000/svg" xmlns:xlink="http://www.w3.org/1999/xlink" width="30.002863672330932" height="30" viewBox="0 0 30.002863672330932 30" fill="none"><defs><rect id="path_0" x="0" y="0" width="30.002863672330875" height="30" /><rect id="path_1" x="0" y="0" width="30" height="30" /></defs><g opacity="1" transform="translate(0 0)  rotate(0 15.001431836165438 15)"><mask id="bg-mask" fill="white"><use xlink:href="#path_0"></use></mask><g mask="url(#bg-mask)" ><path id="矩形 1" fill-rule="evenodd" style="fill:#F1F1F1" transform="translate(0 0)  rotate(0 15 15)" opacity="1" d="M0,30L30,30L30,0L0,0L0,30Z " /><g opacity="1" transform="translate(0 0)  rotate(0 15 15)"><mask id="bg-mask" fill="white"><use xlink:href="#path_1"></use></mask><g mask="url(#bg-mask)" ><path id="矩形 3" fill-rule="evenodd" style="fill:#B2D8FF" transform="translate(19 19)  rotate(0 5.5 5.5)" opacity="1" d="M0,11L11,11L11,0L0,0L0,11Z " /><path id="矩形 2" fill-rule="evenodd" style="fill:#C4C4C4" transform="translate(19 18)  rotate(0 1 0.5)" opacity="1" d="M0,1L2,1L2,0L0,0L0,1Z " /><path id="路径 3" fill-rule="evenodd" style="fill:#FFFFFF" transform="translate(0 6.404085966796876)  rotate(0 14.997935595703124 2.13500783203125)" opacity="1" d="M30,0L0,0L0,4.27L30,4.27L30,0Z " /><path id="路径 4" fill-rule="evenodd" style="fill:#FFFFFF" transform="translate(19.014709306640622 0)  rotate(0 2.1350078173828124 14.997935595703124)" opacity="1" d="M4.27,30L4.27,0L0,0L0,30L4.27,30Z " /><path id="路径 5" fill-rule="evenodd" style="fill:#FFCF68" transform="translate(0 17.096732519531255)  rotate(0 14.997935595703124 2.13500783203125)" opacity="1" d="M30,0L0,0L0,4.27L30,4.27L30,0Z " /><path id="矩形 4" fill-rule="evenodd" style="fill:#AFE881" transform="translate(0 0)  rotate(0 9.5 3)" opacity="1" d="M0,6L19,6L19,0L0,0L0,6Z " /><path id="路径 7" fill-rule="evenodd" style="fill:#FFCF68" transform="translate(5.732719394531251 0)  rotate(0 2.13500783203125 14.997935595703124)" opacity="1" d="M4.27,30L4.27,0L0,0L0,30L4.27,30Z " /><path id="路径 8" fill-rule="evenodd" style="fill:#0093FD" transform="translate(3.04279998046875 5.8297798535156256)  rotate(0 10.427085249023438 7.618938398437499)" opacity="1" d="M7.2,12.28L16.06,4.75L9.19,12.86L16.89,15.24L20.85,0L0,10.1L7.2,12.28Z " /><path id="路径 9" fill-rule="evenodd" style="fill:#0066BD" transform="translate(10.240068837890625 10.578828281249997)  rotate(0 4.432759643554688 4.052969956054688)" opacity="1" d="M0,7.53L1.99,8.11L8.87,0L0,7.53Z " /><path id="路径 10" fill-rule="evenodd" style="fill:#0064BB" transform="translate(10.240918447265626 18.106008955078128)  rotate(0 1.434959633789063 2.107659213867188)" opacity="1" d="M2.87 0.85L0 4.22L0 0L2.87 0.85Z" /></g></g></g></g></svg>