<svg width="128" height="128" viewBox="0 0 128 128" fill="none" xmlns="http://www.w3.org/2000/svg">
<rect width="128" height="128" fill="white"/>
<rect width="128" height="128" fill="url(#paint0_linear_433_18)"/>
<path d="M34.3471 54.4585H22.0694L19 70.6826H31.8258L34.3471 54.4585Z" fill="white"/>
<path d="M54.2984 45.3599H41.0341C39.5725 53.6546 36.5834 70.4853 36.3203 71.45L36.3119 71.4809C36.0522 72.4338 35.8124 73.3136 34.4568 73.3136H32.0451L30.1815 82.7411C32.849 82.668 38.1839 82.5657 43.0073 82.7411C48.3483 82.9353 48.7423 79.839 49.4639 74.1683L49.475 74.0809C50.2038 68.3547 54.2984 45.3599 54.2984 45.3599Z" fill="white"/>
<path fill-rule="evenodd" clip-rule="evenodd" d="M61.4787 66.7362H56.1072V53.1979H67.179L74.6334 45.2502H89.7065L95.4616 54.4037H109L107.794 65.3111H96.229C97.1425 68.2344 101.107 74.1686 107.685 74.0809V82.6863H94.4476C92.5018 81.7545 90.8386 79.4508 89.542 77.26C89.1446 76.5885 88.1201 76.8741 87.9525 77.26C87.1669 79.0688 84.8283 82.6863 83.6498 82.6863H72.4957C70.4951 82.6863 67.782 78.9746 67.782 77.26C67.782 76.5474 66.8502 76.4926 66.8502 77.26C66.8502 79.3017 64.5779 82.6863 62.7667 82.6863H52.5993V72.9847C54.9744 73.003 60.0755 71.7789 61.4787 66.7362ZM80.6078 57.3635L84.8831 64.1601L78.1961 70.7375L73.9208 64.1601L80.6078 57.3635Z" fill="white"/>
<defs>
<linearGradient id="paint0_linear_433_18" x1="64" y1="0" x2="64" y2="128" gradientUnits="userSpaceOnUse">
<stop stop-color="#DE010E"/>
<stop offset="1" stop-color="#A00409"/>
</linearGradient>
</defs>
</svg>
