<svg xmlns="http://www.w3.org/2000/svg" xmlns:xlink="http://www.w3.org/1999/xlink" width="32" height="32" viewBox="0 0 32 32" fill="none"><g opacity="1" transform="translate(0 0)  rotate(0 16 15.999999999999998)"><path id="矩形 1" fill-rule="evenodd" style="fill:#232F3E" transform="translate(0 0)  rotate(0 16 15.999999999999998)" opacity="1" d="M0,32L32,32L32,0L0,0L0,32Z " /><g opacity="1" transform="translate(6 9.996676933562185)  rotate(0 10 6.00332306643779)"><path id="分组 1" fill-rule="evenodd" style="fill:#EC912D" transform="translate(0 7.508079764492487)  rotate(0 10 2.2492831841915475)" opacity="1" d="M17.76 1.51504C15.37 2.52504 12.81 3.04504 10.21 3.06504C6.74 3.06504 3.33 2.15504 0.31 0.435042C0.06 0.295042 -0.12 0.545042 0.09 0.735041C2.81 3.17504 6.34 4.52504 10 4.49504C12.72 4.49504 15.89 3.63504 18.08 2.02504C18.44 1.75504 18.13 1.35504 17.76 1.51504Z M18.4148 3.49C18.3348 3.69 18.5048 3.77 18.6848 3.62C19.8648 2.63 20.1648 0.57 19.9248 0.28C19.6848 -0.02 17.6348 -0.27 16.3848 0.61C16.1848 0.74 16.2248 0.93 16.4348 0.9C17.1448 0.82 18.7148 0.63 18.9948 0.99C19.2748 1.35 18.6848 2.82 18.4148 3.49Z " /><path id="路径 1" fill-rule="evenodd" style="fill:#FFFFFF" transform="translate(0.8580356441503215 0)  rotate(0 2.559870720877933 3.11434445815158)" opacity="1" d="M5.12,5.57C5.11,5.37 4.76,5.06 4.78,4.35L4.78,2.19C4.83,1.59 4.63,1 4.23,0.55C3.74,0.15 3.12,-0.05 2.49,0.01C1.55,0 0.59,0.38 0.43,0.58C0.38,0.66 0.29,1.33 0.52,1.33C0.6,1.33 0.62,1.35 0.85,1.25C1.68,0.91 2.21,0.93 2.29,0.93C3.23,0.83 3.77,1.47 3.69,2.3L3.69,2.79C2.89,2.61 2.44,2.59 2.22,2.59C1.07,2.53 -0.05,3.27 0,4.47C-0.07,5.94 1.31,6.25 1.82,6.23C2.58,6.24 3.3,5.9 3.78,5.31C4.16,6.16 4.4,6.11 4.42,6.11C4.48,6.1 4.54,6.08 4.59,6.05L4.99,5.77C5.06,5.73 5.11,5.65 5.12,5.57Z " /><path id="路径 2" fill-rule="evenodd" style="fill:#232F3E" transform="translate(1.998296449026909 3.3986918213339643)  rotate(0 1.2720275486817145 0.9828011531344333)" opacity="1" d="M2.48,1.01C2.56,0.7 2.54,0.5 2.54,0.16C2.24,0.08 1.81,0 1.31,0C0.83,-0.03 -0.03,0.18 0,1.01C-0.04,1.54 0.35,1.99 0.94,1.96C1.95,1.95 2.38,1.34 2.48,1.01Z " /><path id="路径 3" fill-rule="evenodd" style="fill:#FFFFFF" transform="translate(6.2642399894224035 0.17944943188791776)  rotate(0 4.035488558297772 2.955295817808144)" opacity="1" d="M0.12,0C0.04,0.01 -0.01,0.09 0,0.17C0.01,0.26 0.03,0.35 0.06,0.43L1.62,5.58C1.65,5.75 1.77,5.93 2.01,5.9L2.01,5.9L2.59,5.9C2.93,5.94 2.98,5.6 2.98,5.57L4.01,1.29L5.04,5.57C5.05,5.61 5.1,5.94 5.44,5.91L6.02,5.91C6.27,5.93 6.38,5.76 6.42,5.58C8.17,-0.06 8.05,0.33 8.07,0.27C8.1,-0.02 7.93,0 7.9,0.01L7.29,0.01C6.98,-0.02 6.91,0.26 6.89,0.33L5.74,4.79L4.69,0.33C4.65,-0.01 4.37,0 4.3,0.01L3.76,0.01C3.45,-0.02 3.38,0.23 3.36,0.33L2.33,4.73L1.21,0.33C1.18,0.19 1.09,-0.03 0.82,0C0.06,0 0.13,0 0.12,0Z " /><path id="路径 4" fill-rule="evenodd" style="fill:#FFFFFF" transform="translate(14.78792621211245 0.009924962241580524)  rotate(0 2.1892893979583516 3.1257057583340413)" opacity="1" d="M1.16,1.68C1.12,0.92 2.15,0.89 2.36,0.9C3.23,0.88 3.66,1.21 3.9,1.23C4,1.23 4.05,1.16 4.05,1.02L4.05,0.71C4.06,0.63 4.04,0.55 3.99,0.49C3.71,0.13 2.65,0 2.26,0C0.87,-0.01 0.07,0.87 0.08,1.75C0.09,2.96 1.31,3.34 1.45,3.38C2.63,3.76 2.79,3.77 3.11,4.04C3.39,4.33 3.36,4.89 2.95,5.13C2.83,5.2 2.32,5.51 1.18,5.27C0.79,5.2 0.59,5.1 0.28,4.97C0.19,4.94 0,4.89 0,5.16L0,5.49C0,5.66 0.09,5.8 0.24,5.87C0.98,6.24 1.85,6.25 2.04,6.25C2.06,6.25 3.6,6.35 4.2,5.17C4.31,4.95 4.6,4.14 4.06,3.44C3.61,2.92 3.23,2.86 2.09,2.52C2,2.49 1.15,2.27 1.16,1.68Z " /></g></g></svg>