<svg width="128" height="128" viewBox="0 0 128 128" fill="none" xmlns="http://www.w3.org/2000/svg">
<rect width="128" height="128" fill="white"/>
<rect width="128" height="128" fill="white"/>
<path d="M101.868 60.5639H89.6197V67.0319H93.6575C92.2185 75.4113 84.9177 81.7873 76.1277 81.7873C66.304 81.7873 58.3404 73.8236 58.3404 64C58.3404 54.1764 66.304 46.2128 76.1277 46.2128C81.5848 46.2128 86.468 48.6704 89.7309 52.5391L96.3172 47.8195C91.5755 41.9106 84.2933 38.1277 76.1277 38.1277C61.8388 38.1277 50.2553 49.7111 50.2553 64C50.2553 78.2889 61.8388 89.8724 76.1277 89.8724C90.4166 89.8724 102 78.2889 102 64C102 62.0293 102 61.8019 101.868 60.5639Z" fill="#D55D16"/>
<path d="M74.0053 73.5V65.8192H66.3245V61.7766H74.0053V54.0958H78.0479V61.7766H85.7287V65.8192H78.0479V73.5H74.0053Z" fill="#D55D16"/>
<path d="M31.3075 80.5745H26V88.6596H31.3075C40.2381 88.6596 47.4778 81.42 47.4778 72.4894V39.3405H39.3927V72.4894C39.3927 76.9547 35.7728 80.5745 31.3075 80.5745Z" fill="#D55D16"/>
</svg>
