<svg width="128" height="128" viewBox="0 0 128 128" fill="none" xmlns="http://www.w3.org/2000/svg">
<rect width="128" height="128" fill="white"/>
<rect width="128" height="128" fill="#258EE7"/>
<path d="M49.5 81V47H56.5L60.7537 76V47H65V81H57.5L53.5 52V81H49.5Z" fill="white"/>
<path d="M67.2342 47H73.6707C74.9448 47 75.8931 47.116 76.5155 47.3479C77.1453 47.5643 77.7055 48.0282 78.1961 48.7394C78.694 49.4507 79.1077 50.4015 79.4373 51.5921C79.7668 52.7672 79.9315 54.0891 79.9315 55.558C79.9315 57.1505 79.7265 58.6116 79.3164 59.9413C78.9137 61.271 77 62.5 75.5 63C77 63.5 79.4043 64.5643 79.9315 66.0177C80.4588 67.4711 80.7224 69.1796 80.7224 71.1432C80.7224 72.6894 80.5503 74.1969 80.2061 75.6658C79.8693 77.1191 79.4043 78.2865 78.8112 79.1678C78.2254 80.0337 77.5004 80.5671 76.6364 80.7681C76.0945 80.8918 74.7874 80.9691 72.7151 81H67.2342V47ZM71.4854 50.6589V60.5211H72.6163C73.8831 60.5211 73.5642 60.5985 73.8718 60.5211C75 60.5 75.5 50.6589 73.8718 50.6589C72.8556 50.6589 72.5547 50.6589 71.4854 50.6589ZM71.5 65V77C72 77 72.5 77 73.5 77C75 77 75 65 73.5 65C73 65 73 65 71.5 65Z" fill="white"/>
<path d="M96 81H91L90 72H86L85.2917 81H80.8427L84.5 47H92L96 81ZM89.5 67.5L88 53L86.6207 67.5484L89.5 67.5Z" fill="white"/>
<path d="M34 47C32.8954 47 32 47.8954 32 49V80C32 81.1046 32.8954 82 34 82H43.7662C43.2832 81.9986 43.1262 81.2958 43.0916 81.0376C43.0568 80.7792 43.1325 80.4043 43.1926 80.1064C43.216 79.9907 43.237 79.8865 43.2483 79.8054C43.2868 79.526 43.2744 79.1694 43.2508 78.4936L43.2483 78.4195C43.2238 78.3808 43.1892 78.3479 43.1551 78.3153C43.0633 78.2279 42.9745 78.1432 43.0916 77.9573C43.252 77.8523 43.1845 77.5635 43.0916 77.3414C43.0685 77.286 42.9345 77.0621 42.7938 76.8269C42.6612 76.6053 42.5226 76.3736 42.465 76.2633C42.4466 76.2035 42.4129 76.1308 42.3739 76.0466C42.2574 75.7951 42.0938 75.442 42.1514 75.0311C42.2209 74.5356 41.5756 74.077 40.6662 73.4308C39.7602 72.787 38.5922 71.957 37.6078 70.7187C37.3662 70.4148 35.1979 67.3133 35.101 67.0225C35.0258 66.8627 34.8765 66.8718 34.7244 66.8811C34.5643 66.8909 34.4011 66.9009 34.3177 66.7144C34.2551 66.5747 34.1484 66.3825 34.0192 66.1496C33.266 64.7923 31.7448 62.051 33.6908 60.2461C33.9507 59.7107 33.1483 59.7603 32.8403 59.7794C32.8017 59.7818 32.7708 59.7837 32.7508 59.7839C32.571 59.7859 32.3684 59.168 32.3684 59.168C32.3684 59.168 32.3215 58.3359 32.7508 57.0118C32.8804 56.7521 33.0207 56.3984 33.1801 55.9966C33.8507 54.3066 34.8594 51.7645 36.8245 51.7753C38.3279 51.7756 38.4234 51.5751 38.5419 51.3262C38.544 51.322 38.546 51.3177 38.548 51.3135C38.7419 50.4581 38.7694 50.1454 38.548 50.0813C38.4299 49.9567 38.3568 49.3519 38.3914 49.1573C38.4172 49.0091 38.4896 48.9937 38.7047 49.0032C38.7498 49.0051 38.7575 48.8756 38.7689 48.6807C38.7985 48.1782 38.8537 47.2408 39.6446 47.001C39.6687 47.0004 39.6971 47 39.7293 47C40.204 47 41.4947 47.0873 41.8381 47.771C42.0564 48.3277 41.9142 49.0088 41.8381 49.1573C41.7133 49.4003 41.837 49.817 41.8381 49.7732C41.8385 49.8342 41.8282 49.8893 41.8173 49.9475C41.7937 50.0742 41.7672 50.2161 41.8414 50.4679C41.6301 50.3705 40.5848 51.6213 40.5848 51.6213C40.5848 51.6213 40.1722 52.0586 40.4282 52.2375C40.4507 52.2533 40.5044 52.2826 40.5822 52.3253C41.224 52.6766 43.5095 53.9281 43.5616 55.865C43.6196 58.0415 43.7595 58.7941 44.1882 59.4758C44.7175 60.3171 44.9594 62.1616 44.9718 62.402C44.9792 62.4042 44.9896 62.4069 45.0026 62.4103C45.2708 62.4807 46.6611 62.8456 46.6953 64.7123C46.7225 64.863 46.7365 65.0163 46.7368 65.1694V49C46.7368 47.8954 45.8414 47 44.7368 47H39.7293H34Z" fill="white"/>
<path d="M46.7368 65.1804C46.7344 66.327 45.9637 67.4631 44.2097 67.4844C42.419 67.5024 41.5103 66.2097 41.5247 64.8663C41.5422 63.2678 43.2516 62.4962 43.5616 62.402C43.4995 62.188 43.3079 61.7932 43.0843 61.3323C42.7124 60.5658 42.2519 59.6168 42.1514 59.0139C42.0494 58.5276 41.8032 56.8198 41.8381 56.5496C41.4355 56.5323 40.455 57.383 40.1145 58.3607C39.6322 59.0921 39.4879 59.3669 39.4879 59.6299C39.4879 59.6832 39.5519 59.7581 39.6533 59.8767C39.9737 60.2515 40.668 61.0637 40.8981 63.0182C41.0221 63.5955 41.1266 64.3589 41.2355 65.1543C41.464 66.8229 41.7116 68.632 42.1987 69.1578C42.9584 70.3805 43.3023 71.9286 43.4049 73.799C43.512 74.0063 43.6316 74.1842 43.7464 74.3547C44.0684 74.8331 44.3518 75.2542 44.2097 76.1092C43.8102 77.3368 44.068 77.8602 44.1604 78.0479C44.1744 78.0763 44.1846 78.0971 44.1882 78.1114C44.2838 78.2102 44.4582 78.5301 44.3807 78.7061C44.2062 78.8585 44.2636 79.1427 44.323 79.4369C44.3304 79.4734 44.3378 79.5101 44.3448 79.5467C44.5414 79.739 44.9758 80.947 44.2546 81.8099C44.0644 81.9445 43.904 81.9996 43.769 82H44.7368C45.8414 82 46.7368 81.1046 46.7368 80V65.1804Z" fill="white"/>
</svg>
