<svg width="100" height="100" viewBox="0 0 100 100" fill="none" xmlns="http://www.w3.org/2000/svg">
<path d="M100 0H0V100H100V0Z" fill="url(#paint0_linear_956_3397)"/>
<path d="M72.0875 43.4108C71.2701 40.4298 69.3893 37.8515 66.8004 36.1628C64.2115 34.4742 61.0937 33.7921 58.0362 34.2454C56.5922 32.7035 54.8477 31.4737 52.9102 30.6318C50.9727 29.7899 48.8834 29.3537 46.7709 29.3501C40.3775 29.3501 34.7029 33.3354 32.4209 39.1268C30.4842 39.0514 28.5522 39.3676 26.7406 40.0562C24.9289 40.7449 23.2747 41.7919 21.8771 43.1346C20.4795 44.4774 19.367 46.0883 18.6064 47.8709C17.8457 49.6535 17.4525 51.5713 17.4502 53.5094C17.4502 61.4428 23.9089 67.9014 31.8422 67.9014H51.1109C51.8355 67.8719 52.5207 67.5632 53.023 67.04C53.5252 66.5169 53.8057 65.8197 53.8057 65.0944C53.8057 64.3692 53.5252 63.672 53.023 63.1488C52.5207 62.6256 51.8355 62.317 51.1109 62.2874H31.8422C29.5157 62.2837 27.2856 61.3576 25.641 59.712C23.9963 58.0665 23.0713 55.8359 23.0689 53.5094C23.0704 52.191 23.3687 50.8898 23.9415 49.7023C24.5142 48.5148 25.3469 47.4714 26.3777 46.6494C27.4086 45.8274 28.6111 45.248 29.8964 44.9539C31.1816 44.6599 32.5165 44.6588 33.8022 44.9508L36.5929 45.5901L37.1715 42.7808C37.6328 40.5747 38.8382 38.5942 40.5858 37.1711C42.3335 35.748 44.5171 34.9688 46.7709 34.9641C49.8975 34.9641 52.8655 36.4808 54.7042 39.0194L55.8989 40.6621L57.8309 40.0461C58.8297 39.725 59.8883 39.6345 60.9271 39.7813C61.966 39.928 62.9581 40.3083 63.8289 40.8934C64.6997 41.4786 65.4266 42.2535 65.9549 43.1599C66.4833 44.0663 66.7994 45.0807 66.8795 46.1268L67.0709 48.5861L69.5349 48.7121C71.5962 48.8163 73.5386 49.7092 74.9598 51.206C76.381 52.7028 77.1722 54.6888 77.1695 56.7528C77.1679 57.8735 76.9326 58.9816 76.4785 60.0062C76.0245 61.0309 75.3617 61.9496 74.5326 62.7036C73.7035 63.4577 72.7262 64.0305 71.6631 64.3855C70.6001 64.7405 69.4747 64.8699 68.3589 64.7654L68.0602 64.7281C67.9118 64.709 67.764 64.6856 67.6169 64.6581L67.2669 64.5834C66.899 64.4933 66.5374 64.3795 66.1842 64.2428C65.9417 64.1457 65.7035 64.0383 65.4702 63.9208L65.2135 63.7901C65.0549 63.7004 64.8992 63.6055 64.7469 63.5054L64.5929 63.4121C62.982 62.3148 61.8219 60.6724 61.3262 58.7874H66.0722L58.2975 47.6808L50.5229 58.7874H55.6095C56.1042 62.1008 57.7889 65.0268 60.2202 67.1128L60.3695 67.2528L60.5189 67.3648C60.7237 67.5316 60.9338 67.6919 61.1489 67.8454L61.4242 68.0414C61.6809 68.2141 61.9422 68.3821 62.2129 68.5408L62.4229 68.6621C62.7215 68.8301 63.0202 68.9888 63.3282 69.1288L63.4355 69.1754C64.4622 69.6514 65.5589 69.9968 66.7022 70.2021L66.7955 70.2161C67.1455 70.2814 67.5095 70.3281 67.8735 70.3608L68.0135 70.3701C69.075 70.4564 70.1429 70.4204 71.1962 70.2628C74.4211 69.7621 77.361 68.1255 79.4856 65.6483C81.6103 63.1711 82.7799 60.0163 82.7835 56.7528C82.7864 53.6428 81.7279 50.6249 79.7831 48.1981C77.8382 45.7713 75.1234 44.0808 72.0875 43.4061" fill="white"/>
<defs>
<linearGradient id="paint0_linear_956_3397" x1="50" y1="0" x2="50" y2="100" gradientUnits="userSpaceOnUse">
<stop stop-color="#41C2F5"/>
<stop offset="1" stop-color="#3CE0CF"/>
</linearGradient>
</defs>
</svg>
