<svg width="128" height="128" viewBox="0 0 128 128" fill="none" xmlns="http://www.w3.org/2000/svg">
<rect width="128" height="128" fill="white"/>
<rect width="128" height="128" fill="#0056D2"/>
<path d="M29.2756 63.9905C29.2756 60.2933 32.3197 57.3033 36.1258 57.3033C39.9584 57.3033 43.0033 60.295 43.0033 63.9905C43.0033 67.6603 39.9584 70.7052 36.1258 70.7052C32.3197 70.7052 29.2756 67.657 29.2756 63.9905ZM39.7141 63.9905C39.7141 62.1423 38.1102 60.511 36.1258 60.511C34.1687 60.511 32.5648 62.1423 32.5648 63.9905C32.5648 65.8662 34.1687 67.4975 36.1258 67.4975C38.1136 67.4975 39.7141 65.8662 39.7141 63.9905Z" fill="white"/>
<path d="M98.3537 64.0994C98.3537 60.049 101.643 57.3033 104.634 57.3033C106.672 57.3033 107.842 57.9282 108.629 59.1249L108.943 57.5459H112V70.4601H108.943L108.548 69.1304C107.651 70.1094 106.536 70.7094 104.634 70.7094C101.698 70.7052 98.3537 68.1224 98.3537 64.0994ZM108.792 64.072C108.789 63.1243 108.408 62.2168 107.736 61.5492C107.063 60.8816 106.153 60.5086 105.206 60.5123C104.257 60.5159 103.35 60.8959 102.683 61.5686C102.014 62.2413 101.642 63.1517 101.645 64.0994C101.645 65.8936 103.249 67.4975 105.207 67.4975C107.189 67.4975 108.792 65.8936 108.792 64.072Z" fill="white"/>
<path d="M94.5967 59.0426V57.5468H91.2535V70.4601H94.5967V63.5019C94.5967 61.4085 95.6305 60.3216 97.4222 60.3216C97.541 60.3216 97.654 60.3299 97.7645 60.3407L98.3845 57.2235C96.6418 57.2326 95.3787 57.8302 94.5967 59.0426Z" fill="white"/>
<path d="M61.0008 59.0434V57.5476L57.6576 57.5551L57.6859 70.4667L61.0291 70.4592L61.0108 63.5019C61.0058 61.4094 62.0371 60.3199 63.8305 60.3157C63.9449 60.3161 64.0592 60.3225 64.1729 60.3349L64.7895 57.2144C63.0443 57.2285 61.7795 57.8285 61.0008 59.0434Z" fill="white"/>
<path d="M44.1618 65.4581V57.5476H47.5042V65.0509C47.5042 66.7088 48.4283 67.6878 50.0321 67.6878C51.8263 67.6878 52.8576 66.6 52.8576 64.5066V57.5476H56.2017V70.4601H52.8601V68.9642C52.0723 70.1875 50.7942 70.7858 49.0274 70.7858C46.0374 70.7867 44.1618 68.6119 44.1618 65.4581Z" fill="white"/>
<path d="M76.7163 64.0055C76.7238 60.3897 79.3116 57.2958 83.4161 57.3033C87.2222 57.3108 89.9072 60.3598 89.8981 63.9515C89.8987 64.3066 89.871 64.6612 89.815 65.0119L79.9748 64.9936C80.3521 66.5434 81.6277 67.6603 83.5582 67.6645C84.7266 67.6645 85.9781 67.234 86.741 66.2567L89.0213 68.085C87.8488 69.7412 85.7803 70.716 83.5798 70.7119C79.6947 70.6986 76.7097 67.7842 76.7163 64.0055ZM86.5324 62.6642C86.3446 61.3595 84.9875 60.3506 83.3837 60.3482C81.8338 60.3482 80.5823 61.2673 80.0903 62.6526L86.5324 62.6642Z" fill="white"/>
<path d="M64.8094 67.6454L67.7812 66.0897C68.2723 67.1542 69.2546 67.7817 70.6465 67.7817C71.9288 67.7817 72.4199 67.3728 72.4199 66.7994C72.4199 64.7218 65.3803 65.9808 65.3803 61.2315C65.3803 58.6121 67.6723 57.221 70.5094 57.221C72.6651 57.221 74.5748 58.1759 75.6119 59.9493L72.6668 61.5074C72.2305 60.634 71.4119 60.1429 70.3748 60.1429C69.3659 60.1429 68.874 60.4977 68.874 61.0977C68.874 63.1171 75.9136 61.8349 75.9136 66.6656C75.9136 69.1761 73.8676 70.7036 70.5659 70.7036C67.7554 70.7011 65.7909 69.7736 64.8094 67.6454Z" fill="white"/>
<path d="M16 63.9905C16 60.2667 19.044 57.2759 22.8501 57.2759C23.9945 57.2678 25.1229 57.5447 26.1337 58.0815C27.1444 58.6182 28.0057 59.398 28.6399 60.3507L25.7861 62.0061C25.456 61.5342 25.0165 61.1493 24.5052 60.8842C23.9939 60.619 23.4261 60.4816 22.8501 60.4836C20.8931 60.4836 19.2892 62.1149 19.2892 63.9905C19.2892 65.8662 20.8931 67.4975 22.8501 67.4975C23.4532 67.5014 24.0472 67.3507 24.5755 67.0597C25.1037 66.7687 25.5486 66.3472 25.8676 65.8354L28.6931 67.5207C28.0666 68.5012 27.2021 69.3071 26.1801 69.8633C25.1581 70.4196 24.012 70.708 22.8485 70.7019C19.044 70.7052 16 67.657 16 63.9905Z" fill="white"/>
</svg>
