<svg width="128" height="128" viewBox="0 0 128 128" fill="none" xmlns="http://www.w3.org/2000/svg">
<rect width="128" height="128" fill="white"/>
<rect width="128" height="128" fill="url(#paint0_linear_348_104)"/>
<path d="M38.8759 63.4218C38.8759 49.5313 50.1363 38.2709 64.0267 38.2709C71.7545 38.2709 77.6477 41.5657 82.1288 46.3763C78.4324 48.6283 71.6771 52.621 58.5738 60.0273C55.689 61.6578 54.6722 65.3182 56.3027 68.203C57.9333 71.0878 61.5937 72.1046 64.4785 70.474C68.7148 68.0796 72.9075 65.5769 77.1034 63.0723C83.9404 58.9912 90.786 54.9049 97.8437 51.273C98.8359 50.7624 99.2366 49.5434 98.6838 48.5742C92.1505 37.1198 80.091 26.2709 64.0267 26.2709C43.5089 26.2709 26.8759 42.9039 26.8759 63.4218C26.8759 83.9396 43.5089 100.573 64.0267 100.573C73.1167 100.573 81.458 97.3004 87.9136 91.8763L82.7673 85.7513C81.3462 84.0599 78.8357 83.873 76.9413 85.0094C73.1672 87.2734 68.7533 88.5727 64.0267 88.5727C50.1363 88.5727 38.8759 77.3122 38.8759 63.4218Z" fill="white"/>
<path d="M85.3602 69.3947L96.0888 62.9408L98.6675 66.4346C101.466 70.2263 100.397 75.6036 96.3612 78.0367L92.0656 80.6263L85.3602 69.3947Z" fill="white"/>
<defs>
<linearGradient id="paint0_linear_348_104" x1="64" y1="0" x2="64" y2="128" gradientUnits="userSpaceOnUse">
<stop stop-color="#11B4F5"/>
<stop offset="1" stop-color="#068CEF"/>
</linearGradient>
</defs>
</svg>
