<svg width="128" height="128" viewBox="0 0 128 128" fill="none" xmlns="http://www.w3.org/2000/svg">
<rect width="128" height="128" fill="white"/>
<rect width="128" height="128" fill="#D31C1E"/>
<path d="M63.9999 101C80.2156 101 93.361 87.8546 93.361 71.639C93.361 62.0035 88.7196 53.4521 81.5506 48.0986C80.9411 51.1355 79.382 53.0644 77.2627 54.1608C74.9632 55.3503 72.1564 55.4759 69.6105 55.2816L51.2404 69.8453C51.4873 70.4221 51.6239 71.0573 51.6239 71.7244C51.6239 74.3642 49.484 76.5041 46.8442 76.5041C44.2045 76.5041 42.0645 74.3642 42.0645 71.7244C42.0645 69.0846 44.2045 66.9447 46.8442 66.9447C48.0765 66.9447 49.1999 67.4111 50.0475 68.1769L68.6555 53.4247C68.8613 53.2615 69.1221 53.1836 69.3837 53.2072C71.9387 53.4376 74.435 53.3173 76.3214 52.3414C77.9814 51.4826 79.3143 49.8838 79.683 46.8129C79.6126 46.7683 79.5419 46.724 79.4711 46.68C79.9181 44.2411 81.1983 32.932 75.7785 27C76.632 36.7728 68.1395 42.278 63.9999 42.278C47.7843 42.278 34.6389 55.4233 34.6389 71.639C34.6389 80.6966 38.7403 88.7963 45.1873 94.1822C47.4839 93.9955 49.1298 93.6779 50.444 93.2599C52.276 92.6772 53.5189 91.8839 55.0646 90.8463C55.6245 90.4705 59.4488 87.4754 64.0967 83.8343C68.5531 80.3432 73.7062 76.3066 77.2628 73.5827C77.0215 73.0115 76.8881 72.3835 76.8881 71.7244C76.8881 69.0846 79.028 66.9447 81.6678 66.9447C84.3075 66.9447 86.4475 69.0846 86.4475 71.7244C86.4475 74.3642 84.3075 76.5041 81.6678 76.5041C80.427 76.5041 79.2966 76.0313 78.447 75.256C74.9043 77.9702 69.795 81.9725 65.36 85.4468L65.0805 85.6658C60.619 89.1609 56.836 92.1245 56.2063 92.5471C54.6367 93.6007 53.1911 94.5357 51.0649 95.212C50.0673 95.5293 48.9326 95.786 47.5754 95.9799C52.2631 99.1492 57.9154 101 63.9999 101Z" fill="white"/>
<path d="M49.5755 71.7244C49.5755 73.2328 48.3527 74.4557 46.8442 74.4557C45.3358 74.4557 44.113 73.2328 44.113 71.7244C44.113 70.216 45.3358 68.9931 46.8442 68.9931C48.3527 68.9931 49.5755 70.216 49.5755 71.7244Z" fill="white"/>
<path d="M84.399 71.7244C84.399 73.2328 83.1762 74.4557 81.6678 74.4557C80.1593 74.4557 78.9365 73.2328 78.9365 71.7244C78.9365 70.216 80.1593 68.9931 81.6678 68.9931C83.1762 68.9931 84.399 70.216 84.399 71.7244Z" fill="white"/>
</svg>
