<svg width="128" height="128" viewBox="0 0 128 128" fill="none" xmlns="http://www.w3.org/2000/svg">
<rect width="128" height="128" fill="white"/>
<rect width="128" height="128" fill="#333333"/>
<path d="M48 60H50V71H48V60Z" fill="white"/>
<path d="M52.5 60H48V61.5H52C53.5 61.5 54 62.5 54 64C54 65.5 52.5 66 50.5 66V67.5H52.5C54 67.5 56 66 56 63.5C56 61.567 54.433 60 52.5 60Z" fill="white"/>
<path d="M50.5 67.5H52.5L55.5 71H53L50.5 67.5Z" fill="white"/>
<path d="M58 60H63V61.5H59.5V64.5H62.5V66.5H59.5V69.5H63V71H58V60Z" fill="white"/>
<path d="M64.5 60H69.5V61.5H66V64.5H69V66.5H66V69.5H69.5V71H64.5V60Z" fill="white"/>
<path d="M91 60H96V61.5H92.5V64.5H95.5V66.5H92.5V71H91V60Z" fill="white"/>
<path d="M75 60H72V62H75C75.5523 62 76.5 62 76.5 63C76.5 64.5 74.5 65 74 65V66H76C77.6569 66 79 64.6569 79 63C79 61 76.6569 60 75 60Z" fill="white"/>
<path d="M75.5 71H72V69H75C75.5523 69 76.5 69 76.5 68C76.5 66.5 74.5 66 74 66V65H76C77.6569 65 79 66.3431 79 68C79 69.6569 77 71 75.5 71Z" fill="white"/>
<path d="M71 60H73V71H71V60Z" fill="white"/>
<path d="M82 60H80V66.5C80 68.9853 82.0147 71 84.5 71C86.9853 71 89 68.9853 89 66.5V60H87V66.5C87 67.8807 85.8807 69 84.5 69C83.1193 69 82 67.8807 82 66.5V60Z" fill="white"/>
<path d="M32 57H35V71H32V57Z" fill="#3FA065"/>
<path d="M39 60H46V63H39V60Z" fill="#3FA065"/>
<path d="M39 66H46V71H39V66Z" fill="#3FA065"/>
</svg>
