<svg width="128" height="128" viewBox="0 0 128 128" fill="none" xmlns="http://www.w3.org/2000/svg">
<rect width="128" height="128" fill="white"/>
<rect width="128" height="128" fill="#FEFEFE"/>
<path d="M26 49.0844C26 43.7334 30.3379 39.3954 35.689 39.3954V39.3954C36.163 39.3954 36.6206 39.2217 36.9751 38.9071L43.0653 33.5031C43.8187 32.8346 44.9517 32.8307 45.7097 33.494L51.8887 38.9006C52.2533 39.2196 52.7213 39.3954 53.2057 39.3954H74.5817C75.0591 39.3954 75.5208 39.2247 75.8833 38.914L82.2589 33.4491C83.0079 32.8072 84.1131 32.8072 84.8621 33.4491L91.2659 38.9381C91.6102 39.2332 92.0487 39.3954 92.5021 39.3954V39.3954C97.7476 39.3954 102 43.6478 102 48.8933V85.6668C102 91.1897 97.5228 95.6668 92 95.6668H36C30.4772 95.6668 26 91.1897 26 85.6668V49.0844Z" fill="#ECCB4C"/>
<path d="M81.7109 78.9086C81.7109 83.9541 77.1711 87.1476 64.2802 87.1476C51.3894 87.1476 46.8495 83.9541 46.8495 78.9086C46.8495 73.8631 54.6535 69.7729 64.2802 69.7729C73.9069 69.7729 81.7109 73.8631 81.7109 78.9086Z" fill="white"/>
<path d="M26 70.6088V65.014C26.0556 65.0107 26.1117 65.0091 26.1681 65.0091H32.5575C34.1052 65.0091 35.3599 66.2637 35.3599 67.8114C35.3599 69.3591 34.1052 70.6138 32.5575 70.6138H26.1681C26.1117 70.6138 26.0556 70.6121 26 70.6088Z" fill="#422F2E"/>
<path d="M26 81.8183V76.2235C26.0556 76.2202 26.1117 76.2185 26.1681 76.2185H32.5575C34.1052 76.2185 35.3599 77.4732 35.3599 79.0209C35.3599 80.5686 34.1052 81.8232 32.5575 81.8232H26.1681C26.1117 81.8232 26.0556 81.8216 26 81.8183Z" fill="#422F2E"/>
<path d="M102 76.2458V81.796C101.872 81.8139 101.741 81.8232 101.608 81.8232H95.2183C93.6706 81.8232 92.4159 80.5686 92.4159 79.0209C92.4159 77.4732 93.6706 76.2185 95.2183 76.2185H101.608C101.741 76.2185 101.872 76.2278 102 76.2458Z" fill="#422F2E"/>
<path d="M102 65.0363V70.5866C101.872 70.6045 101.741 70.6138 101.608 70.6138H95.2183C93.6706 70.6138 92.4159 69.3591 92.4159 67.8114C92.4159 66.2637 93.6706 65.0091 95.2183 65.0091H101.608C101.741 65.0091 101.872 65.0184 102 65.0363Z" fill="#422F2E"/>
<path d="M62.3466 39.3955H66.2139V43.2067H73.2198C74.2877 43.2067 75.1534 44.0724 75.1534 45.1403C75.1534 46.2083 74.2877 47.074 73.2198 47.074H66.2139V49.3159H73.2198C74.2877 49.3159 75.1534 50.1816 75.1534 51.2495C75.1534 52.3174 74.2877 53.1831 73.2198 53.1831H55.2286C54.1607 53.1831 53.295 52.3174 53.295 51.2495C53.295 50.1816 54.1607 49.3159 55.2286 49.3159H62.3466V47.074H55.2286C54.1607 47.074 53.295 46.2083 53.295 45.1403C53.295 44.0724 54.1607 43.2067 55.2286 43.2067H62.3466V39.3955Z" fill="#422F2E"/>
<path d="M71.9587 72.4472C73.1544 71.7569 73.1544 70.0311 71.9587 69.3408L60.5251 62.7395C59.3294 62.0492 57.8348 62.9121 57.8348 64.2928V77.4952C57.8348 78.8758 59.3294 79.7387 60.5251 79.0484L71.9587 72.4472Z" fill="#422F2E"/>
</svg>
