<svg width="128" height="128" viewBox="0 0 128 128" fill="none" xmlns="http://www.w3.org/2000/svg">
<rect width="128" height="128" fill="white"/>
<rect width="128" height="128" fill="#1B2945"/>
<path fill-rule="evenodd" clip-rule="evenodd" d="M72.1832 50.0086C72.1832 39.5584 67.0902 30.5718 63.2164 27.6454C63.2004 27.6362 62.9199 27.4785 62.9438 27.8963L62.9383 27.9092C62.6166 48.0861 52.3041 53.5547 46.6346 60.9214C33.5509 77.9213 45.7187 96.5599 58.1092 100.005C65.0421 101.932 56.5081 96.5944 55.4093 85.3194C54.0801 71.6917 72.1832 61.2897 72.1832 50.0086Z" fill="white"/>
<path fill-rule="evenodd" clip-rule="evenodd" d="M78.1281 56.8782C78.0488 56.8242 77.9356 56.7873 77.858 56.9162C77.6448 59.456 75.0491 64.8891 71.7592 69.878C60.6008 86.8001 66.9596 94.9577 70.5351 99.339C72.6113 101.882 70.5351 99.339 75.7246 96.7396C76.1309 96.5361 85.8498 91.0881 86.9021 78.6758C87.921 66.6557 80.6983 59.0793 78.1281 56.8782Z" fill="#2483FF"/>
</svg>
