<?xml version="1.0" encoding="UTF-8" standalone="no"?>
<!DOCTYPE svg PUBLIC "-//W3C//DTD SVG 1.1//EN" "http://www.w3.org/Graphics/SVG/1.1/DTD/svg11.dtd">
<svg width="100%" height="100%" viewBox="0 0 135 135" version="1.1" xmlns="http://www.w3.org/2000/svg" xmlns:xlink="http://www.w3.org/1999/xlink" xml:space="preserve" xmlns:serif="http://www.serif.com/" style="fill-rule:evenodd;clip-rule:evenodd;stroke-linejoin:round;stroke-miterlimit:2;">
    <g transform="matrix(1,0,0,1,-5.35,-6.03427e-06)">
        <path d="M121.9,72.5C122.7,73.6 123.1,74.9 123,76.2C121.9,103 99.8,124.4 72.7,124.4C45.6,124.4 23.5,103 22.4,76.2C22.3,74.9 22.7,73.6 23.5,72.5L68.5,12.8C70.8,9.8 75.3,9.8 77.6,12.8L121.9,72.5Z" style="fill:rgb(0,249,229);fill-rule:nonzero;"/>
    </g>
    <g transform="matrix(1,0,0,1,-5.35,-6.03427e-06)">
        <path d="M56.6,92.3C46.4,101.5 30.8,100.7 21.6,90.6C12.4,80.4 13.2,64.8 23.3,55.6C33.5,46.4 49.1,47.2 58.3,57.3C67.5,67.4 66.8,83.1 56.6,92.3Z" style="fill:white;fill-rule:nonzero;"/>
    </g>
    <g transform="matrix(1,0,0,1,-5.35,-6.03427e-06)">
        <path d="M40,101C32.6,101 25.2,98 19.9,92.1C9.9,81 10.7,63.8 21.8,53.8C27.2,48.9 34.1,46.4 41.3,46.8C48.5,47.2 55.2,50.3 60.1,55.7C70.1,66.8 69.3,84 58.2,94C53,98.7 46.5,101 40,101ZM39.9,51.4C34.3,51.4 29,53.4 24.8,57.2C15.6,65.5 14.9,79.8 23.2,89C27.2,93.5 32.8,96.1 38.8,96.4C44.8,96.7 50.6,94.6 55,90.6C64.2,82.3 64.9,68 56.6,58.8C52.6,54.3 47,51.7 41,51.4L39.9,51.4Z" style="fill:rgb(12,96,102);fill-rule:nonzero;"/>
    </g>
    <g transform="matrix(1,0,0,1,-5.35,-6.03427e-06)">
        <path d="M31,64C25.6,68.9 25.2,77.2 30.1,82.5C35,87.9 43.3,88.3 48.6,83.4C50.4,81.8 51.6,79.8 52.3,77.7L31,64Z" style="fill:rgb(30,30,30);fill-rule:nonzero;"/>
    </g>
    <g transform="matrix(1,0,0,1,-5.35,-6.03427e-06)">
        <path d="M39.1,48.4L66.5,10.7C68,8.7 70.3,7.5 72.8,7.5C75.3,7.5 77.6,8.7 79.1,10.7L106.1,48.5L100.7,48.9L75.6,13.5C75,12.7 74,12.2 72.9,12.2C71.8,12.2 70.9,12.7 70.3,13.5L44,49.5L39.1,48.4ZM30.5,97.1C32.8,101.5 35.9,105.5 39.6,109.1C48.5,117.6 60.2,122.4 72.5,122.4C84.8,122.4 96.5,117.7 105.4,109.1C109.4,105.3 112.6,100.9 115,96.1L121.5,92.6C118.8,100 114.4,106.8 108.6,112.4C98.8,121.8 86,127 72.5,127C59.05,127.009 46.106,121.81 36.4,112.5C30.7,107 26.4,100.5 23.7,93.3L30.5,97.1Z" style="fill:rgb(12,96,102);fill-rule:nonzero;"/>
    </g>
    <g transform="matrix(1,0,0,1,-5.35,-6.03427e-06)">
        <path d="M62.7,83.9C66.6,74.9 65,64 57.6,56.5C48.4,47.2 33.3,46.7 23.5,55.3C22.8,56 22.1,56.6 21.4,57.4C21.2,57.6 21.3,57.9 21.5,58L62,84.1C62.2,84.2 62.6,84.1 62.7,83.9Z" style="fill:url(#_Linear1);fill-rule:nonzero;"/>
    </g>
    <g transform="matrix(1,0,0,1,-5.35,-6.03427e-06)">
        <path d="M62.7,83.9L64.8,84.8C66.3,81.3 67.1,77.6 67.1,73.9C67.1,67 64.5,60.1 59.3,54.8C54,49.5 47,46.8 40,46.8C33.6,46.8 27.1,49 22,53.6C21.2,54.3 20.4,55.1 19.7,55.8C19.2,56.4 19,57 19,57.7C19,58.6 19.4,59.5 20.3,60L60.7,86C61.2,86.3 61.7,86.4 62.2,86.4C62.7,86.4 63.2,86.3 63.7,86C64.1,85.7 64.5,85.3 64.8,84.8L60.6,83L62.3,83.8L61.3,82.2C61,82.4 60.7,82.7 60.6,83L62.3,83.8L61.3,82.2L62.3,83.8L62.3,81.9C61.9,81.9 61.6,82 61.3,82.2L62.3,83.8L62.3,81.9L62.3,83.8L63.3,82.2C63,82 62.6,81.9 62.3,81.9L62.3,83.8L63.3,82.2L22.8,56.1L21.8,57.7L23.7,57.7C23.7,57.1 23.4,56.5 22.8,56.1L21.8,57.7L23.7,57.7L21.8,57.7L23.2,59C23.5,58.6 23.7,58.2 23.7,57.7L21.8,57.7L23.2,59C23.8,58.4 24.4,57.7 25.1,57.1C29.3,53.4 34.6,51.5 40,51.5C45.8,51.5 51.7,53.7 56,58.1C60.4,62.5 62.5,68.2 62.5,73.9C62.5,77 61.9,80.1 60.6,82.9L62.7,83.9Z" style="fill:rgb(12,96,102);fill-rule:nonzero;"/>
    </g>
    <g transform="matrix(1,0,0,1,-5.35,-6.03427e-06)">
        <path d="M88.6,92.3C98.8,101.5 114.4,100.7 123.6,90.6C132.8,80.4 132,64.8 121.9,55.6C111.7,46.4 96.1,47.2 86.9,57.3C77.7,67.4 78.4,83.1 88.6,92.3Z" style="fill:white;fill-rule:nonzero;"/>
    </g>
    <g transform="matrix(1,0,0,1,-5.35,-6.03427e-06)">
        <path d="M87,94C75.9,84 75.1,66.8 85.1,55.7C90,50.3 96.6,47.2 103.9,46.8C111.1,46.4 118.1,48.9 123.4,53.8C134.5,63.8 135.3,81 125.3,92.1C120,98 112.6,101 105.2,101C98.7,101 92.2,98.7 87,94ZM104.1,51.4C98.1,51.7 92.6,54.3 88.5,58.8C80.2,68 80.9,82.3 90.1,90.6C94.6,94.6 100.3,96.7 106.3,96.4C112.3,96.1 117.8,93.5 121.9,89C130.2,79.8 129.5,65.5 120.3,57.2C116.1,53.4 110.8,51.4 105.2,51.4L104.1,51.4Z" style="fill:rgb(12,96,102);fill-rule:nonzero;"/>
    </g>
    <g transform="matrix(1,0,0,1,-5.35,-6.03427e-06)">
        <path d="M114.2,63.9C119.6,68.8 120,77.1 115.1,82.4C110.2,87.8 101.9,88.2 96.6,83.3C94.8,81.7 93.6,79.7 92.9,77.6L114.2,63.9Z" style="fill:rgb(30,30,30);fill-rule:nonzero;"/>
    </g>
    <g transform="matrix(1,0,0,1,-5.35,-6.03427e-06)">
        <path d="M82.5,83.8C78.6,74.8 80.2,63.9 87.6,56.4C96.8,47.1 111.9,46.6 121.7,55.2C122.4,55.9 123.1,56.5 123.8,57.3C124,57.5 123.9,57.8 123.7,57.9L83.2,84C82.9,84.2 82.6,84.1 82.5,83.8Z" style="fill:url(#_Linear2);fill-rule:nonzero;"/>
    </g>
    <g transform="matrix(1,0,0,1,-5.35,-6.03427e-06)">
        <path d="M80.4,84.7L84.6,82.9C83.3,80 82.7,77 82.7,73.9C82.7,68.2 84.8,62.5 89.2,58.1C93.5,53.7 99.4,51.5 105.2,51.5C110.5,51.5 115.8,53.4 120.1,57.1C120.8,57.7 121.4,58.3 122,59L123.4,57.7L121.5,57.7C121.5,58.1 121.7,58.6 122,59L123.4,57.7L121.5,57.7L123.4,57.7L122.4,56.1C121.9,56.5 121.5,57.1 121.5,57.7L123.4,57.7L122.4,56.1L81.9,82.1L82.9,83.7L82.9,81.8C82.6,81.8 82.2,81.9 81.9,82.1L82.9,83.7L82.9,81.8L82.9,83.7L83.9,82.1C83.6,81.9 83.3,81.8 82.9,81.8L82.9,83.7L83.9,82.1L82.9,83.7L84.6,82.9C84.4,82.5 84.2,82.2 83.9,82.1L82.9,83.7L84.6,82.9L80.4,84.7C80.6,85.2 81,85.7 81.5,85.9C81.9,86.2 82.5,86.3 83,86.3C83.5,86.3 84,86.2 84.5,85.9L125,59.8C125.8,59.3 126.2,58.4 126.2,57.5C126.2,56.9 126,56.2 125.5,55.7C124.8,54.9 124,54.2 123.2,53.5C118.1,49 111.6,46.7 105.2,46.7C98.2,46.7 91.1,49.4 85.9,54.7C80.7,60 78.1,66.9 78.1,73.8C78.1,77.5 78.9,81.2 80.4,84.7Z" style="fill:rgb(12,96,102);fill-rule:nonzero;"/>
    </g>
    <defs>
        <linearGradient id="_Linear1" x1="0" y1="0" x2="1" y2="0" gradientUnits="userSpaceOnUse" gradientTransform="matrix(33.9116,33.9116,-33.9116,33.9116,30.819,48.5111)"><stop offset="0" style="stop-color:rgb(0,249,229);stop-opacity:1"/><stop offset="0.57" style="stop-color:rgb(41,157,244);stop-opacity:1"/><stop offset="1" style="stop-color:rgb(74,84,255);stop-opacity:1"/></linearGradient>
        <linearGradient id="_Linear2" x1="0" y1="0" x2="1" y2="0" gradientUnits="userSpaceOnUse" gradientTransform="matrix(-33.9116,33.9116,-33.9116,-33.9116,114.359,48.4417)"><stop offset="0" style="stop-color:rgb(0,249,229);stop-opacity:1"/><stop offset="0.57" style="stop-color:rgb(41,157,244);stop-opacity:1"/><stop offset="1" style="stop-color:rgb(74,84,255);stop-opacity:1"/></linearGradient>
    </defs>
</svg>
