<svg xmlns="http://www.w3.org/2000/svg" xmlns:xlink="http://www.w3.org/1999/xlink" width="160" height="160" viewBox="0 0 160 160" fill="none"><defs><rect id="path_0" x="0" y="0" width="160" height="160" /><linearGradient id="linear_0" x1="-5.551115123125783e-15%" y1="50%" x2="100%" y2="49.999999999999986%" gradientUnits="objectBoundingBox"><stop offset="0" stop-color="#E1554F" stop-opacity="1" /><stop offset="1" stop-color="#CD3A31" stop-opacity="1" /></linearGradient><path id="path_1"
        transform="translate(0 0) rotate(0 80 80)"
        d="M0,160L160,160L160,0L0,0L0,160Z" /></defs><g opacity="1" transform="translate(0 0)  rotate(0 80 80)"><mask id="bg-mask-0" fill="white"><use xlink:href="#path_0"></use></mask><g mask="url(#bg-mask-0)" ><g opacity="1" transform="translate(0 0)  rotate(0 80 80)"><path id="路径 1" fill-rule="evenodd" fill="url(#linear_0)" transform="translate(0 0)  rotate(0 80 80)" opacity="1" d="M0,160L160,160L160,0L0,0L0,160Z " /><g opacity="1" transform="translate(0 0)  rotate(0 80 80)"><mask id="mask-1" fill="white"><use xlink:href="#path_1"></use></mask><g mask="url(#mask-1)"></g><g mask="url(#mask-1)"><g opacity="1" transform="translate(37.683031126885794 33.05716746000064)  rotate(0 45.99669187503053 51.127649999999996)"><g opacity="1" transform="translate(0 0)  rotate(0 45.996691875030535 51.127649999999996)"><g opacity="1" transform="translate(0 0)  rotate(0 45.996691875030535 51.12765000000002)"><g opacity="1" transform="translate(0 0)  rotate(0 45.996691875030535 51.127649999999996)"><path id="形状结合" fill-rule="evenodd" style="fill:#FFFFFF" transform="translate(0 0)  rotate(0 45.996691875030535 51.127649999999996)" opacity="1" d="M54.21 2.25L45.99 17.68L37.78 2.25C37.05 0.87 35.6 0 34.03 0C32.46 0 31.02 0.87 30.28 2.25L0.75 57.72C-0.25 59.59 -0.25 61.84 0.75 63.71L19.47 98.88C20.58 100.96 22.74 102.26 25.1 102.26L66.89 102.26C69.25 102.26 71.41 100.96 72.52 98.88L91.25 63.71C92.24 61.84 92.24 59.59 91.25 57.72L61.71 2.25C60.97 0.87 59.53 0 57.96 0C56.39 0 54.95 0.87 54.21 2.25Z M32.1556 21.4004L12.0156 59.2204C11.5256 60.1504 11.5256 61.2804 12.0156 62.2104L26.7656 89.9104C27.3256 90.9504 28.4056 91.6004 29.5856 91.6004L62.4056 91.6004C63.5856 91.6004 64.6656 90.9504 65.2256 89.9104L79.9756 62.2104C80.4756 61.2804 80.4756 60.1504 79.9756 59.2204L59.8356 21.4004C59.4656 20.7004 58.7456 20.2704 57.9656 20.2704C57.1756 20.2704 56.4556 20.7004 56.0856 21.4004L52.0256 29.0104L52.0356 29.0204L46.0056 40.3504L45.9956 40.3404L37.6656 55.9904L37.6756 55.9904C37.1956 56.8204 36.8456 57.7304 36.6356 58.7004L36.6056 58.8504C36.4856 59.4704 36.4156 60.0904 36.4156 60.7104L36.4156 60.7404C36.4156 66.0404 40.7056 70.3304 46.0056 70.3304C51.2456 70.3304 55.4956 66.1304 55.5956 60.9204L55.5956 60.7104L55.5656 60.7104C55.5656 59.1604 55.1856 57.6104 54.4356 56.2104L51.9656 51.5604L58.0056 40.2204L63.6056 50.7504C65.2856 53.7004 66.2456 57.1104 66.2456 60.7504C66.2456 71.9304 57.1856 80.9904 46.0056 80.9904C34.8256 80.9904 25.7656 71.9304 25.7656 60.7504C25.7656 58.8004 26.0456 56.9104 26.5556 55.1204L26.7056 54.6304L26.7556 54.4904C27.1156 53.3704 27.5756 52.2704 28.1456 51.2104L39.9656 29.0104L35.9056 21.4004C35.5356 20.7004 34.8156 20.2704 34.0356 20.2704C33.2456 20.2704 32.5256 20.7004 32.1556 21.4004Z " /></g></g></g></g></g></g></g></g></g></svg>