<svg xmlns="http://www.w3.org/2000/svg" xmlns:xlink="http://www.w3.org/1999/xlink" width="30" height="30" viewBox="0 0 30 30" fill="none"><defs><rect id="path_0" x="0" y="0" width="30" height="30" /><rect id="path_1" x="0" y="0" width="20" height="20" /></defs><g opacity="1" transform="translate(0 0)  rotate(0 15 15)"><mask id="bg-mask" fill="white"><use xlink:href="#path_0"></use></mask><g mask="url(#bg-mask)" ><path id="矩形 1" fill-rule="evenodd" style="fill:#FFFFFF" transform="translate(0 0)  rotate(0 15 15)" opacity="1" d="M0,30L30,30L30,0L0,0L0,30Z " /><g opacity="1" transform="translate(5 5)  rotate(0 10 10)"><mask id="bg-mask" fill="white"><use xlink:href="#path_1"></use></mask><g mask="url(#bg-mask)" ><path id="路径 1" fill-rule="evenodd" style="fill:#FFDC04" transform="translate(0.29702412577629067 0.15802239311103472)  rotate(0 5.847043492678262 6.746217337808336)" opacity="1" d="M11.69,0.17C4.87,-1.11 -1.11,5.01 0.17,11.69C0.32,12.97 1.88,13.97 3.16,13.26C4.01,12.69 4.44,11.69 4.16,10.7C3.87,9.56 3.73,8.28 4.01,7C4.73,3.3 7.71,0.6 11.69,0.17Z " /><path id="路径 2" fill-rule="evenodd" style="fill:#E03A22" transform="translate(0.7555555556640624 13.271111111132807)  rotate(0 8.240392383241074 3.2921324134244525)" opacity="1" d="M0,0C2.28,6.54 10.52,8.68 15.64,4.27C16.78,3.41 16.78,1.56 15.5,0.85C14.65,0.28 13.51,0.43 12.8,1.14C11.95,1.99 10.81,2.7 9.67,3.13C6.12,4.27 2.13,3.13 0,0Z " /><path id="路径 3" fill-rule="evenodd" style="fill:#27AA3A" transform="translate(10.426666666601562 0.5927807966700227)  rotate(0 4.677990225336912 7.9036096016649875)" opacity="1" d="M6.97,15.81C11.52,10.54 9.24,2.44 2.84,0.16C1.56,-0.41 0,0.59 0,2.01C0,3.01 0.71,3.86 1.71,4.14C2.84,4.43 3.98,5 4.98,5.85C7.68,8.27 8.68,12.39 6.97,15.81Z " /><path id="路径 4" fill-rule="evenodd" style="fill:#038BC5" transform="translate(6.351025173410685 6.017777777734375)  rotate(0 3.8220106092755346 3.9822222222656247)" opacity="1" d="M7.49,6.12C7.77,5.97 7.63,5.4 7.35,4.69C6.92,3.98 6.64,3.7 6.35,3.56C6.35,3.27 6.35,2.99 6.21,2.84C6.21,2.7 6.21,2.7 6.07,2.56C6.07,1.14 5.21,0 3.65,0C2.08,0 1.23,1.14 1.23,2.56C1.23,2.7 1.09,2.7 1.09,2.84C0.95,3.13 0.95,3.27 0.95,3.41L0.95,3.56C0.66,3.7 0.38,4.12 0.24,4.55C-0.05,5.26 -0.05,5.97 0.09,5.97C0.24,6.12 0.52,5.83 0.8,5.55C0.8,5.97 1.09,6.4 1.37,6.68C1.09,6.68 0.8,6.97 0.8,7.25C0.8,7.68 1.37,7.96 2.23,7.96C2.94,7.96 3.51,7.68 3.65,7.4L3.79,7.4C3.93,7.68 4.5,7.96 5.21,7.96C5.92,7.96 6.64,7.68 6.64,7.25C6.64,6.97 6.35,6.83 6.07,6.68C6.35,6.4 6.64,6.12 6.78,5.69C7.06,6.12 7.35,6.26 7.49,6.12Z " /></g></g></g></g></svg>