<svg xmlns="http://www.w3.org/2000/svg" xmlns:xlink="http://www.w3.org/1999/xlink" width="32" height="32" viewBox="0 0 32 32" fill="none"><g opacity="1" transform="translate(0 0)  rotate(0 16.000000000000004 15.999999999999998)"><path id="矩形 1" fill-rule="evenodd" style="fill:#FFFFFF" transform="translate(0 0)  rotate(0 16.000000000000004 15.999999999999998)" opacity="1" d="M0,32L32,32L32,0L0,0L0,32Z " /><g opacity="1" transform="translate(8 8.57)  rotate(0 8 7.497179603815899)"><path id="路径 1" fill-rule="evenodd" style="fill:#FF3332" transform="translate(8.297972644649516 0)  rotate(0 3.8510136776752413 7.497179603815899)" opacity="1" d="M7.67,3.37L7.7,0.08L7.52,0.03C7.42,0 6.62,-0.01 5.73,0.01L4.11,0.03L4.07,3.2C4.02,6.34 4.02,6.37 3.82,7.08C3.3,8.9 2.14,10.44 0.62,11.35C0.28,11.54 0,11.74 0,11.78C0,11.81 0.27,12.47 0.6,13.24C0.94,14 1.24,14.71 1.28,14.82C1.38,15.06 1.55,15.06 2.09,14.77C3.32,14.11 4.81,12.76 5.67,11.56C6.51,10.4 7.13,8.95 7.48,7.37C7.63,6.73 7.65,6.37 7.67,3.37Z " /><path id="路径 2" fill-rule="evenodd" style="fill:#FF3332" transform="translate(0 0.0035954527324110427)  rotate(0 1.8055518687084993 3.344775132231146)" opacity="1" d="M1.84,6.69L3.58,6.66L3.61,3.39C3.62,0.82 3.61,0.1 3.53,0.05C3.42,-0.01 0.26,-0.02 0.1,0.04C0.02,0.07 0,0.76 0,3.34C0,5.13 0.02,6.63 0.05,6.66C0.08,6.68 0.88,6.7 1.84,6.69Z " /><path id="路径 3" fill-rule="evenodd" style="fill:#FF3332" transform="translate(5.884016979884174 0.006843585357804958)  rotate(0 1.8051569212202334 3.3431510659184487)" opacity="1" d="M1.84,6.68L3.58,6.66L3.61,3.39C3.62,0.86 3.6,0.1 3.53,0.05C3.43,-0.01 0.26,-0.02 0.1,0.04C0.02,0.07 0,0.76 0,3.33C0,5.13 0.02,6.62 0.05,6.65C0.08,6.68 0.88,6.69 1.84,6.68Z " /></g></g></svg>