<svg width="128" height="128" viewBox="0 0 128 128" fill="none" xmlns="http://www.w3.org/2000/svg">
<rect width="128" height="128" fill="white"/>
<rect width="128" height="128" fill="url(#paint0_linear_431_319)"/>
<path fill-rule="evenodd" clip-rule="evenodd" d="M34.1624 53.9683C33.5702 56.981 34.7967 57.8852 36.11 57.97C37.4233 58.0547 38.0884 57.0657 38.6991 54.3578C40.5171 46.2965 47.7214 40.2757 56.332 40.2757C64.2401 40.2757 70.9731 45.3568 73.4222 52.4459L74.4581 55.4445C74.8208 56.4942 76.0354 56.9717 77.0158 56.4499L79.8164 54.9594C80.7593 54.4576 81.8363 54.1713 82.9934 54.1713C86.737 54.1713 89.7718 57.206 89.7718 60.9496C89.7718 61.7672 89.629 62.5414 89.3709 63.2551L88.0748 66.8394C87.652 68.0085 88.5083 69.2456 89.7514 69.2615L93.5626 69.3103C98.4984 69.3735 102.481 73.3956 102.481 78.3473C102.481 83.3387 98.4348 87.3851 93.4434 87.3851C85.0433 87.3851 78.2861 87.4546 70.9098 87.5306L68.5498 87.5548C60.2232 87.6394 50.826 87.724 37.268 87.724C30.7791 87.724 25.5189 82.4637 25.5189 75.9749C25.5189 72.0755 27.4206 68.6153 30.3484 66.4774C30.5433 66.3351 30.7362 66.1984 30.9242 66.0652C32.1686 65.1838 33.1988 64.454 33.1586 63.2514C33.1177 62.0261 31.6967 60.4377 29.2916 61.7933C24.3423 64.5829 21 69.8886 21 75.9749C21 84.9595 28.2834 92.2429 37.268 92.2429C52.1433 92.2429 62.0209 92.1412 70.9553 92.0492H70.9553H70.9558C78.3332 91.9733 85.068 91.904 93.4434 91.904C100.93 91.904 107 85.8344 107 78.3473C107 72.4996 103.298 67.5167 98.109 65.6149C96.7068 65.1009 95.196 64.812 93.6205 64.7918C94.0542 63.5924 94.2906 62.2986 94.2906 60.9496C94.2906 60.7284 94.2843 60.5086 94.2717 60.2905C93.9304 54.358 89.0115 49.6524 82.9934 49.6524C82.3137 49.6524 81.648 49.7124 81.0014 49.8275C79.8258 50.0366 78.7131 50.4276 77.6934 50.9703C77.1959 49.5303 76.5569 48.1563 75.7931 46.8649C71.8602 40.2159 64.6168 35.7568 56.332 35.7568C45.3531 35.7568 36.2031 43.5875 34.1624 53.9683ZM46.7858 59.1985C46.7858 59.1985 57.5182 59.4809 62.6584 62.983C67.7986 59.7633 78.531 59.1985 78.531 59.1985L74.7464 81.115C74.7464 81.115 67.9977 81.5319 63.3852 81.9903C66.8929 78.806 71.0899 78.806 71.0899 78.806L73.7297 63.519C73.7297 63.519 66.2438 64.7478 62.6584 66.9935C59.073 64.5508 51.5871 63.519 51.5871 63.519L54.4633 78.806C54.4633 78.806 58.7389 79.0234 62.1169 81.9615C57.0391 81.3726 50.9093 81.115 50.9093 81.115L46.7858 59.1985Z" fill="white"/>
<defs>
<linearGradient id="paint0_linear_431_319" x1="3.5" y1="1.5" x2="121.75" y2="128" gradientUnits="userSpaceOnUse">
<stop stop-color="#41FCEF"/>
<stop offset="0.513126" stop-color="#03B9D9"/>
</linearGradient>
</defs>
</svg>
