<svg width="300" height="300" viewBox="0 0 300 300" fill="none" xmlns="http://www.w3.org/2000/svg">
<rect width="300" height="300" fill="white"/>
<path d="M231.878 152.052V75.9854H214.22C213.678 75.9854 213.158 76.1994 212.773 76.581L184.333 104.764L231.878 152.052Z" fill="#FF9458"/>
<path d="M231.878 152.053L119.826 40V152.053H231.878Z" fill="#FF5D39"/>
<path d="M124.316 259.22L231.878 152.053H119.826V257.365C119.826 259.702 122.659 260.872 124.316 259.22Z" fill="#E6442E"/>
<path d="M231.878 97.0278L231.879 75.98L253.461 94.063C254.663 95.0697 253.951 97.0278 252.383 97.0278H231.878Z" fill="#FB5F39"/>
<path d="M119.826 40H46.5219C44.4873 40 43.2931 42.2884 44.4568 43.9574L119.826 152.053V40Z" fill="#FF9A62"/>
<path d="M119.826 152.053L68.145 203.259C66.5478 204.842 67.6685 207.565 69.9169 207.565H119.826V152.053Z" fill="#FF9A62"/>
</svg>
