<svg xmlns="http://www.w3.org/2000/svg" xmlns:xlink="http://www.w3.org/1999/xlink" width="32" height="32" viewBox="0 0 32 32" fill="none"><defs><rect id="path_0" x="0" y="0" width="18" height="18" /></defs><g opacity="1" transform="translate(0 0)  rotate(0 16.000000000000004 15.999999999999998)"><path id="矩形 1" fill-rule="evenodd" style="fill:#FFFFFF" transform="translate(0 0)  rotate(0 16.000000000000004 15.999999999999998)" opacity="1" d="M0,32L32,32L32,0L0,0L0,32Z " /><g opacity="1" transform="translate(7 7)  rotate(0 9 9)"><mask id="bg-mask-0" fill="white"><use xlink:href="#path_0"></use></mask><g mask="url(#bg-mask-0)" ><path id="分组 1" fill-rule="evenodd" style="fill:#E68000" transform="translate(5.875920000000011 0.4984874999999945)  rotate(0 5.828782499999989 8.49141)" opacity="1" d="M3.108 10.26L3.108 4.24998L0.128002 7.23998L3.108 10.26Z M3.1064 4.25L3.1064 10.26L7.4164 5.92L7.4164 0L3.1064 4.25Z M11.6561 16.98L11.6561 4.25L7.41611 6.10623e-16L7.41611 12.72L11.6561 16.98Z M0 7.38198L3 10.382 " /><path id="分组 2" fill-rule="evenodd" style="fill:#327BB0" transform="translate(0.4738500000000001 0.4984874999999951)  rotate(0 4.198770000000006 8.50847625)" opacity="1" d="M0 4.22L0 17.02L4.21 12.76L4.21 0L0 4.22Z M4.20732 0L4.20732 5.86L5.39732 7.08L8.39732 4.09L4.20732 0Z M5.40207 10.382L8.40207 10.382L5.40207 7.38198L5.40207 10.382Z " /></g></g></g></svg>