<svg xmlns="http://www.w3.org/2000/svg" xmlns:xlink="http://www.w3.org/1999/xlink" width="32" height="32" viewBox="0 0 32 32" fill="none"><g opacity="1" transform="translate(0 0)  rotate(0 16 15.999999999999998)"><path id="矩形 1" fill-rule="evenodd" style="fill:#FF640A" transform="translate(0 0)  rotate(0 16 15.999999999999998)" opacity="1" d="M0,32L32,32L32,0L0,0L0,32Z " /><g opacity="1" transform="translate(7.149888884114716 5)  rotate(0 8.850111115885435 11)"><path id="路径 2" fill-rule="evenodd" style="fill:#FFFFFF" transform="translate(0 0)  rotate(0 8.850111115885415 11)" opacity="1" d="M4.92,22L11.86,19.14L13.44,16.26L8.56,17.37L4.92,21.36L4.92,3.9L12.81,5.95L14.58,9.79L11.86,14.25L15.18,13.65L17.7,9.79L14.97,3.9L4.92,0L0,1.43L0,20.57L4.92,22Z " /><path id="路径 3" fill-rule="evenodd" style="fill:#FFFFFF" transform="translate(5.993777796875141 6.2614444348956795)  rotate(0 3.391666666666666 4.648722231770834)" opacity="1" d="M1.76,0L3.23,3.52L0,9.3L3.78,8.49L6.78,3.52L5.56,0.93L1.76,0L1.76,0Z " /></g></g></svg>