<svg width="128" height="128" viewBox="0 0 128 128" fill="none" xmlns="http://www.w3.org/2000/svg">
<rect width="128" height="128" fill="white"/>
<rect width="128" height="128" fill="#FDFAFA"/>
<path fill-rule="evenodd" clip-rule="evenodd" d="M83.4983 35.0503H32.365V67.0179H83.4983V35.0503ZM29 31.6853V70.3829H71.0623L80.5092 77.0635V70.3829H86.8633V31.6853H29Z" fill="#044792"/>
<path d="M43.915 73.9927V90.0242C43.915 90.0242 60.5908 89.3237 71.9212 96.3148C81.9257 90.4086 90 89.984 99 90.0242V51.5731H89.8393V73.9927H83.0892V82.0687L70.0713 73.9927H43.915Z" fill="#044792"/>
<path d="M48.4127 44.0026V47.3367C47.001 47.8564 41.6789 51.4048 41.6789 51.4048V52.3887L48.4127 56.4658L48.4127 59.4523L38.5105 53.7108V50.1025L48.4127 44.0026Z" fill="#044792"/>
<path d="M55.3065 59.4523H52.4543C55.7843 52.6061 59.2328 46.5898 60.7883 43.6104H63.5327L55.3065 59.4523Z" fill="#044792"/>
<path d="M66.9308 44.0026V47.3367C68.3424 47.8565 73.6645 51.4048 73.6645 51.4048V52.3887L66.9308 56.4658L66.9307 59.4523L76.833 53.7108V50.1026L66.9308 44.0026Z" fill="#044792"/>
</svg>
