<svg xmlns="http://www.w3.org/2000/svg" xmlns:xlink="http://www.w3.org/1999/xlink" width="32" height="32" viewBox="0 0 32 32" fill="none"><g opacity="1" transform="translate(0 0)  rotate(0 16 15.999999999999998)"><path id="矩形 1" fill-rule="evenodd" style="fill:#DC5425" transform="translate(0 0)  rotate(0 16 15.999999999999998)" opacity="1" d="M0,32L32,32L32,0L0,0L0,32Z " /><path id="分组 1" fill-rule="evenodd" style="fill:#FFFFFF" transform="translate(8.49999999414058 7)  rotate(0 7.500000005859378 9)" opacity="1" d="M0 0L0 18L3.6 18L3.6 12.6L8.7 12.6C12.18 12.6 15 9.78 15 6.3C15 2.82 12.18 0 8.7 0L0 0Z M11.4 6.3C11.4 4.81 10.19 3.6 8.7 3.6L3.6 3.6L3.6 9L8.7 9C10.19 9 11.4 7.79 11.4 6.3Z " /></g></svg>