<svg width="128" height="128" viewBox="0 0 128 128" fill="none" xmlns="http://www.w3.org/2000/svg">
<rect width="128" height="128" fill="white"/>
<rect width="128" height="128" fill="#DF5F47"/>
<path fill-rule="evenodd" clip-rule="evenodd" d="M81.8492 49.0601C80.4837 49.0601 79.1766 49.3591 77.9712 49.9054C76.4379 44.4513 71.5618 40.4646 65.7837 40.4646C60.1472 40.4646 55.369 44.2584 53.715 49.5073C51.8702 47.8148 49.5622 46.8089 47.0577 46.8089C41.0107 46.8089 36.1087 52.6731 36.1087 59.9069C36.1087 60.9641 36.2134 61.9921 36.4111 62.9768H36.1333C30.5368 62.9768 26 67.5136 26 73.1101V77.4021C26 82.9986 30.5368 87.5354 36.1333 87.5354H91.8667C97.4632 87.5354 102 82.9986 102 77.4021V73.1101C102 67.8198 97.946 63.4763 92.7751 63.0169C92.7904 62.733 92.7982 62.4467 92.7982 62.1581C92.7982 54.9243 87.8962 49.0601 81.8492 49.0601ZM76.3031 55.2549L78.3716 68.8536L66.4958 66.0722L69.8833 61.8772C68.2366 60.5062 66.1189 59.6815 63.8086 59.6815C59.2592 59.6815 55.4566 62.8793 54.5263 67.1499L49.5745 66.0722C50.9988 59.5212 56.8307 54.6148 63.8086 54.6148C67.5707 54.6148 70.9997 56.041 73.5844 58.3822L76.3031 55.2549ZM63.8086 83.7481C70.3273 83.7481 75.8459 79.4662 77.7052 73.5616L72.7612 72.3674C71.4516 76.0471 67.9377 78.6815 63.8086 78.6815C61.5976 78.6815 59.563 77.9261 57.9488 76.6595L61.2658 73.2975L49.3292 70.7853L51.4207 82.3674L53.8538 79.816C56.4582 82.2549 59.959 83.7481 63.8086 83.7481Z" fill="url(#paint0_linear_381_144)"/>
<defs>
<linearGradient id="paint0_linear_381_144" x1="64" y1="40.4646" x2="64" y2="87.5354" gradientUnits="userSpaceOnUse">
<stop stop-color="#F3F3F3"/>
<stop offset="1" stop-color="#FCFCFC"/>
</linearGradient>
</defs>
</svg>
