<svg xmlns="http://www.w3.org/2000/svg" xmlns:xlink="http://www.w3.org/1999/xlink" width="32" height="32" viewBox="0 0 32 32" fill="none"><defs><rect id="path_0" x="0" y="0" width="32" height="32" /><linearGradient id="linear_0" x1="49.99999999999999%" y1="0%" x2="50%" y2="100%" gradientUnits="objectBoundingBox"><stop offset="0" stop-color="#00CFFB" stop-opacity="1" /><stop offset="1" stop-color="#006CEB" stop-opacity="1" /></linearGradient></defs><g opacity="1" transform="translate(0 0)  rotate(0 16 16)"><mask id="bg-mask-0" fill="white"><use xlink:href="#path_0"></use></mask><g mask="url(#bg-mask-0)" ><path id="矩形 1" fill-rule="evenodd" fill="url(#linear_0)" transform="translate(0 0)  rotate(0 16 16)" opacity="1" d="M0,32L32,32L32,0L0,0L0,32Z " /><g opacity="1" transform="translate(5 5.087756889063286)  rotate(0 11 10.912243110936705)"><path id="路径 1" fill-rule="evenodd" style="fill:#FFFFFF" transform="translate(0 0.18905614138579557)  rotate(0 11 10.817715040243808)" opacity="1" d="M0,11.06C0.12,16.98 5.23,21.67 11.06,21.64C16.84,21.6 21.88,16.95 22,11.06C22.12,5.12 17.19,0.04 11.06,0C4.88,-0.02 -0.12,5.08 0,11.06Z " /><path id="路径 2" fill-rule="evenodd" style="fill:#008EF0" transform="translate(0.858051987109628 4.696461255669624)  rotate(0 9.767744081146942 1.6298113965813568)" opacity="1" d="M0.05,1.68C-0.05,1.91 0.03,2.12 0.05,2.16C2.39,2.82 6.15,3.57 10.74,3.13C14.49,2.76 17.49,1.73 19.52,0.84C19.53,0.81 19.59,0.49 19.4,0.24C19.26,0.07 19.1,0.02 19.04,0C17.02,0.81 14.2,1.69 10.74,2.04C6.39,2.49 2.79,1.9 0.41,1.32C0.37,1.33 0.14,1.43 0.05,1.68Z " /><path id="路径 3" fill-rule="evenodd" style="fill:#008EF0" transform="translate(10.639399177943956 0)  rotate(0 2.8318240181034438 10.641700555955977)" opacity="1" d="M4.93,20.8C4.99,20.56 5.08,20.21 5.18,19.78C5.34,19.05 5.75,16.9 5.65,13.59C5.61,12.38 5.57,10.6 5.05,8.42C4.62,6.57 3.63,3.53 1.2,0.25C1.17,0.21 0.88,-0.05 0.48,0.01C0.23,0.04 0.06,0.19 0,0.25C2.8,4.18 3.73,7.69 4.09,9.74C4.38,11.38 4.42,12.81 4.45,13.59C4.53,16.09 4.24,18.29 4.04,19.87C3.97,20.45 3.89,20.95 3.85,21.28C3.97,21.28 4.19,21.27 4.45,21.16C4.7,21.06 4.86,20.9 4.93,20.8Z " /><path id="路径 4" fill-rule="evenodd" style="fill:#008EF0" transform="translate(0.8986627669979944 12.629345534742047)  rotate(0 10.519543373903343 2.1793692013007635)" opacity="1" d="M0.13,3.25C0.28,3.55 0.52,3.68 0.61,3.73C0.98,3.75 1.62,3.79 2.41,3.85C5.14,4.06 6.05,4.25 8.06,4.33C8.98,4.36 9.6,4.38 10.46,4.33C10.91,4.3 12.52,4.18 15.03,3.49C16.5,3.08 18.45,2.42 20.68,1.32C20.76,1.17 20.85,0.96 20.92,0.72C21,0.44 21.03,0.19 21.04,0C20.33,0.29 19.28,0.71 18.03,1.2C15.27,2.3 14.85,2.43 14.55,2.52C12.37,3.19 10.61,3.33 10.1,3.37C8.91,3.45 8.26,3.38 5.53,3.13C4.33,3.02 2.42,2.85 0,2.64C-0.01,2.74 -0.01,2.98 0.13,3.25Z " /><path id="路径 5" fill-rule="evenodd" style="fill:#008EF0" transform="translate(3.5804248845271194 0.1203426619813041)  rotate(0 3.592036800067548 9.864822653096228)" opacity="1" d="M1.77,5.9C1.37,6.72 1.11,7.52 1.03,7.77C0.63,8.98 0.29,10.49 0.09,12.75C-0.14,15.33 0.11,17.56 0.45,19.24C0.46,19.29 0.51,19.47 0.69,19.6C0.89,19.76 1.12,19.73 1.17,19.72C1.1,16.56 1.36,13.94 1.65,12.03C2.12,8.95 2.4,7.05 3.21,5.18C4.74,1.68 7.31,0.14 7.18,0.01C7.02,-0.16 3.57,2.12 1.77,5.9Z " /></g></g></g></svg>