<svg xmlns="http://www.w3.org/2000/svg" xmlns:xlink="http://www.w3.org/1999/xlink" width="29" height="29" viewBox="0 0 29 29" fill="none"><g opacity="1"  transform="translate(0 0)  rotate(0)"><path id="路径 2" fill-rule="evenodd" style="fill:#000000" opacity="1" d="M3.94 0.47C3.14 0.76 2.42 1.22 1.82 1.82C1.22 2.42 0.76 3.14 0.47 3.94C0.01 5.32 0 6.2 0 9.65L0 19.35C0 22.8 0.01 23.68 0.47 25.06C0.76 25.86 1.22 26.58 1.82 27.18C2.42 27.78 3.14 28.24 3.93 28.53C5.32 28.99 6.19 29 9.65 29L19.35 29C22.8 29 23.68 28.99 25.06 28.53C25.86 28.24 26.58 27.78 27.18 27.18C27.78 26.58 28.24 25.86 28.53 25.06C28.99 23.68 29 22.8 29 19.35L29 9.65C29 6.2 28.99 5.32 28.53 3.94C28.24 3.14 27.77 2.42 27.18 1.82C26.58 1.22 25.86 0.76 25.06 0.47C23.68 0.01 22.8 0 19.35 0L9.65 0C6.19 0 5.31 0.01 3.94 0.47Z"></path><path id="路径 3" fill-rule="evenodd" style="fill:#11F1FF" opacity="1" d="M24.5189 9.25555C24.5189 6.73555 22.4689 4.68555 19.9489 4.68555C17.4289 4.68555 15.3789 6.73555 15.3789 9.25555L15.3789 11.7155C15.3789 12.4955 16.0089 13.1255 16.7889 13.1255L23.1089 13.1255C23.8889 13.1255 24.5189 12.4955 24.5189 11.7155L24.5189 9.25555Z"></path><path id="路径 4" fill-rule="evenodd" style="fill:#FF694D" opacity="1" d="M8.70047 4.68555C6.37047 4.68555 4.48047 6.57555 4.48047 8.90555C4.48047 11.2355 6.37047 13.1255 8.70047 13.1255C11.0305 13.1255 12.9205 11.2355 12.9205 8.90555C12.9205 6.57555 11.0305 4.68555 8.70047 4.68555Z"></path><path id="路径 5" fill-rule="evenodd" style="fill:#FC6BFF" opacity="1" d="M5.41797 22.9038C5.41797 23.6838 6.04797 24.3138 6.82797 24.3138L10.578 24.3138C11.348 24.3138 11.978 23.6838 11.978 22.9038L11.978 16.5838C11.978 15.8038 11.348 15.1738 10.578 15.1738L6.82797 15.1738C6.04797 15.1738 5.41797 15.8038 5.41797 16.5838L5.41797 22.9038Z"></path><path id="路径 6" fill-rule="evenodd" style="fill:#ACFF43" opacity="1" d="M19.9531 16.928L18.6031 15.578C17.8231 14.808 16.5631 14.808 15.7831 15.578C15.0131 16.358 15.0131 17.618 15.7831 18.398L17.1331 19.748L15.7831 21.088C15.0131 21.868 15.0131 23.128 15.7831 23.908C16.5631 24.688 17.8231 24.688 18.6031 23.908L19.9531 22.558L21.2931 23.908C22.0731 24.688 23.3331 24.688 24.1131 23.908C24.8931 23.128 24.8931 21.868 24.1131 21.088L22.7631 19.748L24.1131 18.398C24.8931 17.618 24.8931 16.358 24.1131 15.578C23.3331 14.808 22.0731 14.808 21.2931 15.578L19.9531 16.928Z"></path></g></svg>