<svg xmlns="http://www.w3.org/2000/svg" xmlns:xlink="http://www.w3.org/1999/xlink" width="32" height="32" viewBox="0 0 32 32" fill="none"><g opacity="1" transform="translate(0 0)  rotate(0 16 15.999999999999998)"><path id="矩形 1" fill-rule="evenodd" style="fill:#0097D9" transform="translate(0 0)  rotate(0 16 15.999999999999998)" opacity="1" d="M0,32L32,32L32,0L0,0L0,32Z " /><g opacity="1" transform="translate(3.5909999999998945 11.117658244621452)  rotate(0 13 4.882341755378458)"><path id="分组 1" fill-rule="evenodd" style="fill:#FFFFFF" transform="translate(0 0)  rotate(0 12.99462025434976 3.492380271031894)" opacity="1" d="M7.17001 6.98402C9.18001 6.97402 11.2 6.98402 13.21 6.98402C13.58 6.98402 13.64 6.92402 13.76 6.56402C13.87 6.24402 13.99 5.92402 14.1 5.60402C14.25 5.89402 14.32 6.16402 14.4 6.44402C14.54 6.94402 14.58 6.97402 15.1 6.97402L25.72 6.97402C25.8 6.97402 25.89 6.96402 25.99 6.96402L25.99 6.29402C25.64 6.29402 25.32 6.29402 24.99 6.30402C24.83 6.30402 24.76 6.25402 24.77 6.09402C24.79 5.87402 24.78 5.66402 24.78 5.45402C24.78 5.10402 24.78 5.10402 25.12 5.10402C25.39 5.11402 25.67 5.10402 25.95 5.10402L25.95 4.41402C25.9 4.40402 25.87 4.39402 25.83 4.39402C24.74 4.39402 23.65 4.38402 22.56 4.40402C22.43 4.40402 22.29 4.53402 22.18 4.63402C22.07 4.72402 21.98 4.91402 21.87 4.93402C21.55 4.97402 21.23 4.94402 20.85 4.94402C21.38 4.08402 21.88 3.27402 22.4 2.41402L21.54 2.41402C21.51 2.41402 21.48 2.42402 21.47 2.43402C21.35 2.60402 21.26 2.79402 21.12 2.94402C21.03 3.02402 20.86 3.03402 20.73 3.08402C20.71 3.05402 20.7 3.02402 20.68 2.99402C21.07 2.36402 21.45 1.74402 21.87 1.05402C21.59 1.05402 21.37 1.06402 21.16 1.05402C20.98 1.04402 20.87 1.09402 20.78 1.26402C20.51 1.74402 20.23 2.21402 19.93 2.67402C19.76 2.92402 19.71 3.18402 19.72 3.47402C19.73 3.66402 19.81 3.75402 20 3.75402C20.19 3.74402 20.38 3.75402 20.62 3.75402C20.42 4.09402 20.27 4.38402 20.08 4.64402C19.92 4.87402 19.89 5.11402 19.9 5.37402C19.91 5.57402 19.98 5.67402 20.19 5.67402C20.83 5.66402 21.48 5.67402 22.13 5.66402C22.24 5.65402 22.42 5.58402 22.46 5.49402C22.65 5.13402 22.94 5.06402 23.3 5.10402C23.43 5.12402 23.55 5.11402 23.67 5.10402C23.82 5.10402 23.88 5.16402 23.87 5.31402C23.86 5.56402 23.86 5.80402 23.87 6.05402C23.88 6.23402 23.82 6.29402 23.63 6.29402C22.05 6.29402 20.46 6.29402 18.87 6.29402C18.7 6.29402 18.64 6.25402 18.64 6.07402C18.65 4.86402 18.65 3.64402 18.64 2.43402C18.64 2.24402 18.71 2.18402 18.89 2.19402C19.04 2.20402 19.25 2.23402 19.33 2.15402C19.52 1.95402 19.65 1.70402 19.85 1.41402L18.68 1.41402C18.66 1.27402 18.64 1.16402 18.62 1.02402C18.39 1.02402 18.17 1.01402 17.95 1.03402C17.91 1.03402 17.82 1.11402 17.83 1.15402C17.85 1.43402 17.68 1.42402 17.49 1.41402C17.03 1.41402 16.58 1.41402 16.1 1.41402C16.1 1.65402 16.08 1.84402 16.11 2.03402C16.11 2.09402 16.21 2.18402 16.28 2.19402C16.45 2.21402 16.63 2.20402 16.87 2.20402C16.66 2.95402 16.49 3.65402 16.26 4.33402C16.24 4.41402 15.97 4.43402 15.82 4.42402C15.77 4.42402 15.69 4.25402 15.69 4.16402C15.68 3.22402 15.68 2.28402 15.69 1.34402C15.69 1.15402 15.64 1.08402 15.44 1.08402C14.62 1.09402 13.8 1.08402 12.99 1.09402C12.49 1.09402 12.56 1.03402 12.56 1.53402C12.55 2.60402 12.55 3.67402 12.56 4.75402C12.56 4.83402 12.64 4.99402 12.7 5.00402C12.9 5.03402 13.11 5.01402 13.35 5.01402L13.35 1.76402C13.79 1.76402 14.19 1.78402 14.6 1.76402C14.85 1.74402 14.9 1.84402 14.89 2.06402C14.88 2.92402 14.88 3.78402 14.89 4.64402C14.89 5.00402 15.02 5.13402 15.37 5.13402C15.66 5.13402 15.95 5.13402 16.24 5.13402C16.83 5.13402 16.93 5.06402 17.07 4.49402C17.25 3.80402 17.42 3.10402 17.61 2.41402C17.63 2.33402 17.71 2.28402 17.77 2.21402C17.79 2.28402 17.84 2.36402 17.84 2.43402C17.85 3.65402 17.84 4.86402 17.85 6.08402C17.85 6.24402 17.8 6.30402 17.64 6.30402C16.86 6.29402 16.07 6.30402 15.3 6.29402C15.19 6.28402 15.02 6.18402 14.99 6.10402C14.76 5.36402 14.43 4.64402 14.49 3.83402C14.53 3.29402 14.5 2.75402 14.5 2.20402L13.71 2.20402C13.71 2.58402 13.68 2.95402 13.73 3.31402C13.83 4.29402 13.55 5.18402 13.21 6.07402C13.17 6.15402 13.1 6.27402 13.04 6.28402C12.71 6.29402 12.37 6.29402 12.02 6.29402L12.02 1.32402C12 1.32402 11.98 1.31402 11.95 1.31402C11.93 1.39402 11.9 1.47402 11.87 1.56402C11.45 3.05402 11.03 4.53402 10.63 6.02402C10.57 6.21402 10.49 6.27402 10.3 6.27402C9.29001 6.26402 8.28001 6.26402 7.27001 6.26402L6.90001 6.26402C6.90001 6.43402 6.91001 6.56402 6.89001 6.69402C6.87001 6.90402 6.94001 6.98402 7.17001 6.98402Z M2.41866 5.54384C2.60866 5.08384 2.43866 4.84384 1.94866 4.84384L0.938656 4.84384L0.938656 4.51384L2.73866 4.51384C2.74866 4.61384 2.75866 4.69384 2.75866 4.76384L2.75866 6.28384C2.75866 6.97384 2.75866 6.96384 3.43866 6.96384C3.62866 6.96384 3.70866 6.91384 3.69866 6.71384C3.67866 6.38384 3.69866 6.06384 3.68866 5.73384C3.68866 5.53384 3.72866 5.44384 3.95866 5.45384C4.36866 5.47384 4.78866 5.45384 5.19866 5.45384C5.26866 5.45384 5.33866 5.47384 5.40866 5.48384C5.40866 5.68384 5.39866 5.86384 5.40866 6.04384C5.41866 6.20384 5.34866 6.27384 5.19866 6.27384C5.01866 6.27384 4.83866 6.26384 4.65866 6.27384C4.19866 6.28384 4.25866 6.20384 4.23866 6.71384C4.23866 6.88384 4.27866 6.96384 4.47866 6.96384C4.89866 6.95384 5.32866 6.96384 5.74866 6.95384C6.11866 6.93384 6.29866 6.73384 6.30866 6.37384C6.30866 5.95384 6.28866 5.53384 6.30866 5.12384C6.31866 4.88384 6.23866 4.82384 6.00866 4.83384C5.32866 4.84384 4.63866 4.84384 3.95866 4.84384C3.66866 4.84384 3.64866 4.80384 3.73866 4.49384L4.02866 4.49384C4.54866 4.49384 5.07866 4.50384 5.59866 4.49384C5.94866 4.48384 6.23866 4.31384 6.27866 4.04384C6.31866 3.66384 6.27866 3.27384 6.27866 2.88384C6.22866 2.87384 6.19866 2.86384 6.16866 2.86384C4.18866 2.86384 2.20866 2.87384 0.228656 2.86384C-0.0413444 2.86384 0.0186556 3.03384 0.00865563 3.18384C0.00865563 3.35384 -0.0113444 3.50384 0.238656 3.50384C0.968656 3.48384 1.69866 3.49384 2.41866 3.49384L2.72866 3.49384L2.72866 3.85384L0.238656 3.85384C0.118656 3.85384 0.00865563 3.85384 0.00865563 4.02384C0.0186556 4.44384 0.0186556 4.86384 0.0186556 5.28384C0.0186556 5.43384 0.0986556 5.47384 0.228656 5.47384C0.568656 5.46384 0.908656 5.46384 1.23866 5.47384C1.33866 5.47384 1.42866 5.48384 1.54866 5.49384C1.47866 5.66384 1.41866 5.79384 1.36866 5.92384C1.27866 6.22384 1.07866 6.32384 0.778656 6.29384C0.588656 6.28384 0.388656 6.28384 0.198656 6.30384C0.138656 6.31384 0.0586556 6.40384 0.0286556 6.46384C-0.00134437 6.54384 0.0286556 6.64384 0.0186556 6.72384C-0.0113444 6.91384 0.0686556 6.97384 0.258656 6.97384C0.638656 6.96384 1.01866 6.96384 1.39866 6.96384C1.70866 6.96384 1.91866 6.81384 2.02866 6.53384C2.15866 6.20384 2.29866 5.87384 2.41866 5.54384Z M5.14572 3.86123C5.41572 3.86123 5.44572 3.73123 5.38572 3.50123L3.97572 3.50123C3.67572 3.50123 3.66572 3.51123 3.72572 3.85123C4.19572 3.85123 4.67572 3.85123 5.14572 3.86123Z M11.6907 0C10.1907 0 8.68074 0.01 7.17074 0C6.93074 0 6.88074 0.08 6.88074 0.3C6.88074 2.13 6.88074 3.97 6.88074 5.8C6.88074 5.86 6.90074 5.93 6.91074 5.99C6.98074 5.91 7.02074 5.82 7.04074 5.73C7.34074 4.71 7.63074 3.67 7.96074 2.65C8.10074 2.24 8.06074 1.96 7.70074 1.74C7.65074 1.71 7.63074 1.66 7.56074 1.58C9.07074 1.39 10.5307 1.2 11.9907 1L11.9907 0C11.8807 0 11.7807 0 11.6907 0Z M5.66 2.66971C5.79 2.66971 5.92 2.65971 6.06 2.66971C6.27 2.69971 6.35 2.61971 6.33 2.39971C6.31 2.23971 6.41 2.00971 6.08 2.03971C5.86 2.05971 5.69 1.96971 5.62 1.69971C5.81 1.69971 5.95 1.68971 6.08 1.70971C6.33 1.73971 6.34 1.58971 6.33 1.40971C6.32 1.24971 6.38 1.06971 6.09 1.07971C5.45 1.09971 4.8 1.07971 4.15 1.07971C3.65 1.07971 3.65 1.07971 3.52 1.57971C3.38 2.12971 3.49 2.05971 2.87 2.06971L2.85 2.06971C2.63 2.06971 2.53 1.95971 2.5 1.73971C2.7 1.72971 2.95 1.77971 3.07 1.67971C3.2 1.56971 3.2 1.31971 3.26 1.07971L0.96 1.07971C0.46 1.07971 0.46 1.07971 0.4 1.57971C0.37 1.81971 0.33 2.04971 0 2.07971C0 2.24971 -0.01 2.38971 0.01 2.52971C0.02 2.58971 0.06 2.66971 0.11 2.68971C0.48 2.81971 0.92 2.60971 1.05 2.21971C1.09 2.09971 1.11 1.97971 1.18 1.86971C1.22 1.80971 1.31 1.72971 1.38 1.72971C1.47 1.72971 1.58 1.78971 1.63 1.85971C1.71 1.95971 1.76 2.08971 1.8 2.21971C1.91 2.51971 2.14 2.66971 2.45 2.67971C2.73 2.68971 3.02 2.69971 3.3 2.68971C4.08 2.65971 4.07 2.65971 4.31 1.92971C4.34 1.83971 4.43 1.71971 4.49 1.71971C4.59 1.71971 4.72 1.77971 4.79 1.85971C4.89 1.97971 4.97 2.13971 5.04 2.28971C5.17 2.54971 5.38 2.66971 5.66 2.66971Z " /><path id="分组 2" fill-rule="evenodd" style="fill:#FFFFFF" transform="translate(0.22795638017523173 1.0634275793602401)  rotate(0 12.886021809912384 4.3506279656983375)" opacity="1" d="M25.3659 0C24.3459 0 23.3259 0 22.3059 0C22.2159 0 22.0859 0 22.0359 0.06C21.8959 0.24 21.7859 0.45 21.6359 0.7L24.3259 0.7C24.3459 0.73 24.3759 0.76 24.4059 0.8C24.3259 0.84 24.2359 0.87 24.1759 0.93C23.8759 1.19 23.5659 1.45 23.2959 1.74C23.0259 2.02 22.7459 2.17 22.3559 2.11C22.2659 2.1 22.1359 2.13 22.0959 2.19C21.9459 2.37 21.8459 2.58 21.6959 2.83C22.5459 2.8 23.3859 3.04 23.9859 2.17C24.4059 2.95 25.0559 2.85 25.7259 2.8C25.7259 2.68 25.7159 2.56 25.7359 2.45C25.7759 2.18 25.6659 2.07 25.3959 2.11C25.0059 2.19 24.8059 1.92 24.5659 1.64C24.6359 1.57 24.7059 1.52 24.7659 1.46C25.0559 1.22 25.3359 0.96 25.6259 0.71C25.8359 0.53 25.7659 0.3 25.7359 0.09C25.7259 0.04 25.4959 0 25.3659 0Z M14.5106 6.92708C14.4506 6.59708 14.1806 6.43708 13.7306 6.42708C12.9806 6.41708 12.2306 6.42708 11.4806 6.41708C11.3206 6.41708 11.2606 6.47708 11.2606 6.63708C11.2706 7.23708 11.2706 7.83708 11.2606 8.43708C11.2606 8.63708 11.3406 8.67708 11.5206 8.67708C11.8906 8.66708 12.2606 8.66708 12.6306 8.66708C12.6306 8.66708 12.6306 8.66708 12.6306 8.66708C13.0306 8.66708 13.4206 8.67708 13.8206 8.65708C14.2406 8.64708 14.5406 8.41708 14.5706 8.07708C14.5806 7.88708 14.4306 7.69708 14.4206 7.50708C14.4106 7.31708 14.5406 7.10708 14.5106 6.92708Z M12.055 7.26579C12.615 7.25579 13.175 7.25579 13.735 7.26579C13.925 7.26579 13.965 7.18579 13.905 7.00579L11.885 7.00579C11.835 7.19579 11.885 7.26579 12.055 7.26579Z M13.7734 7.82446C13.2034 7.82446 12.6334 7.82446 12.0734 7.82446C11.8734 7.82446 11.8734 7.83446 11.9234 8.07446L13.9434 8.07446C14.0034 7.89446 13.9434 7.82446 13.7734 7.82446Z M23.1407 7.19659C23.6107 7.62659 24.0707 8.06659 24.5407 8.50659C24.7607 8.70659 25.0207 8.73659 25.2907 8.62659C25.5407 8.52659 25.5807 8.29659 25.5707 8.05659C25.5707 7.61659 25.5607 7.16659 25.5807 6.72659C25.5907 6.45659 25.4907 6.41659 25.2607 6.41659C25.0107 6.40659 24.9907 6.51659 24.9907 6.71659C25.0007 7.15659 24.9907 7.59659 24.9907 8.10659C24.8207 7.95659 24.7107 7.84659 24.6007 7.74659C24.1907 7.36659 23.8007 6.98659 23.4007 6.61659C23.1807 6.41659 22.9307 6.36659 22.6607 6.47659C22.4007 6.57659 22.3707 6.80659 22.3707 7.04659C22.3707 7.49659 22.3807 7.94659 22.3607 8.39659C22.3507 8.64659 22.4507 8.69659 22.6607 8.69659C22.8807 8.70659 22.9507 8.62659 22.9407 8.40659C22.9207 7.96659 22.9407 7.52659 22.9407 7.01659C23.0507 7.11659 23.1007 7.15659 23.1407 7.19659Z M0.77 8.6648C1.42 8.6748 2.06 8.6748 2.71 8.6748L3.23 8.6748L3.23 8.1248L2.95 8.1248C2.23 8.1248 1.51 8.1248 0.8 8.1148C0.72 8.1148 0.59 8.0248 0.58 7.9748C0.57 7.6648 0.58 7.3448 0.58 6.9948L3.26 6.9948C3.26 6.8748 3.25 6.7948 3.26 6.7148C3.29 6.4848 3.2 6.3948 2.96 6.4148C2.72 6.4348 2.48 6.4248 2.24 6.4248C1.72 6.4248 1.2 6.4148 0.68 6.4348C0.23 6.4548 0.01 6.7148 0 7.1648L0 7.8748C0 8.4148 0.24 8.6648 0.77 8.6648Z M12.6306 8.66708C12.6306 8.66708 12.6306 8.66708 12.6306 8.66708 M12.6306 8.66708C12.6306 8.66708 12.6306 8.66708 12.6306 8.66708 " /></g></g></svg>