<svg xmlns="http://www.w3.org/2000/svg" xmlns:xlink="http://www.w3.org/1999/xlink" width="32" height="32" viewBox="0 0 32 32" fill="none"><g opacity="1" transform="translate(0 0)  rotate(0 16 15.999999999999998)"><path id="矩形 1" fill-rule="evenodd" style="fill:#FFFFFF" transform="translate(0 0)  rotate(0 16 15.999999999999998)" opacity="1" d="M0,32L32,32L32,0L0,0L0,32Z " /><g opacity="1" transform="translate(6 7.126165640303043)  rotate(0 10 8.873834359696938)"><path id="路径 1" fill-rule="evenodd" style="fill:#3166FF" transform="translate(0 0)  rotate(0 9.999999999999986 8.873834359696952)" opacity="1" d="M2.44,14.6C4.48,16.78 7.42,17.87 10.4,17.74C12.98,17.62 14.62,16.66 14.62,16.66C20,13.75 19.99,8.03 19.99,8.03C20.13,4.97 19.02,2.68 18.37,1.61C18.11,1.18 17.64,0.92 17.15,0.93L16.02,0.94C16.02,0.94 15.42,0.95 15.47,1.45C15.5,1.75 15.68,2.01 15.86,2.25L15.85,2.25C17.53,4.52 17.39,7.63 17.39,7.63C17.32,12.24 13.62,14.26 13.62,14.26C10.79,15.85 7.53,14.78 7.53,14.78C4.66,13.97 3.31,11.17 3.31,11.17C1.81,8.11 3.31,5.51 3.31,5.51C5.03,2.46 8.12,2.65 8.12,2.65C11.4,2.65 12.41,5.51 12.41,5.51C12.74,6.28 12.82,6.29 13.26,6.29L14.43,6.29C14.82,6.29 15.14,5.97 15.14,5.58C14.98,3.07 12.41,1.25 12.41,1.25C9.74,-0.47 7.08,-0.09 5.4,0.48C4.23,0.87 3.18,1.57 2.35,2.48C-0.87,6.02 0.15,10 0.15,10C0.46,11.99 1.4,13.5 2.44,14.6Z " /><path id="路径 2" fill-rule="evenodd" style="fill:#FF2403" transform="translate(4.661914159211898 7.825969345034732)  rotate(0 5.280955333781846 2.658149547635106)" opacity="1" d="M1.83,0L0.59,0C0.24,0 -0.04,0.3 0,0.65C0.33,3.28 2.57,5.32 5.28,5.32C8,5.32 10.24,3.28 10.56,0.65C10.6,0.3 10.32,0 9.97,0L8.73,0C8.39,0 8.09,0.23 8.02,0.56C7.76,1.8 6.63,2.64 5.28,2.64C3.93,2.64 2.8,1.8 2.54,0.56C2.47,0.23 2.17,0 1.83,0Z " /></g></g></svg>